/* XPM */
static char *_632921272852[] = {
/* columns rows colors chars-per-pixel */
"50 50 21 1 ",
"  c #AB875A",
". c #AF8A5B",
"X c #B38E5C",
"o c #B6915E",
"O c #B9945E",
"+ c #AE8C60",
"@ c #B38F61",
"# c #B69362",
"$ c #B99663",
"% c #BD9A65",
"& c #BA9768",
"* c #BD9C69",
"= c #BFA06D",
"- c #C19D66",
"; c #C19E6A",
": c #C3A067",
"> c #C2A16C",
", c #C9A76E",
"< c #C3A370",
"1 c #C7A873",
"2 c #C9AA74",
/* pixels */
">%o&=OOO;;;X-&--$;#-;;;-$;;$@;;*$o=%oX*#<<<$O==+oo",
"**%&=<O%--##;;-$;%-*;--$$%;;$%@@$>%%=$%%$%&*$===$$",
"%>%$=&%#$;$$#----$$$#-&$**&<$$*@o=%%&&%%&&&=&&==$$",
"%>$o=#=O#- --$-%-,#X$<-#&;;%@$<*=<%$%*;%#o*#O=====",
"==+#X=oO;-X$;--#*%@*$%%@X&%*$%*&&=&=$=>*&OO==O#===",
"=O%OoO#=;-----@$-$#-$#;%@*%$*<&@&&$%%$1*======&%=#",
"#==&%$%%&$O-;-$;%-$;$$%%%$%;&<;*%$X*$o**o#$=<=%=+o",
"o==oO==O$$,;O-$&%;%#;o-*%$**$<<<=o$**%**#%&&=oo#$=",
"=o%O%%>>%-*-$;;;>>*>=XO=##&$$**>>o$>1%$$%;%X$;X-==",
"OO==%%O>>%X&$&--;*$%==O=$$%&%&$$&%*$*>#$%-&%--$#$$",
"%O=O$%%--&$$$-X;;&%%%OO<%#&;>=****%X#%$$;;@$-;#$==",
"OO==-o-%$*;;&&$$%$%=%O%=*&%%%o#*;;-&$%$$;;#.;-$*O$",
"##>>O%-:$$$#;%;<;$$$#&&=*&&&$$X$;;-&$$$#%%$@+;$1=-",
"#oO=%:%:-$$$$;&;%%*%&#&#=%%*%%$&$-*$--$&=&-%#;$;=$",
"##o=$>,:$;%-$#%;*->:**%o%=$&=$o%$-;-;<;$$-;$;;;%=O",
"==%o>:,%$$$;$.%$#=$$###$%$#>=O:=;&;X@;$@$-X-;->%=-",
";%#-;;---;$$*&%*$#%%$&=%O%==O:,=*%%X$>%->-$$-$-%>%",
"$@$;-$-;$X$%*>*>>%&=====oX%%O=OO$&=*%<-#%%*%$--@=>",
";@o-$;;$;&-**%%>=%&%===%=>%%o$=%o$%O%-,%;$><$-;$O%",
"#$$+*<;;-$$*%**%%=&oO%OOO=%%$%=o$=:OO%%,@#$$#$&;:%",
";&;@&-X$;&-%=$o%=%&%o*=O%OO&=#O=O,=%:=O%*O-;;%.#o%",
";$--#;-$&<1##&&$%=$*$==%===O%=<=$$%>O$=>$%;%$$;;%o",
"&-X->;&#;;#*$$*==>O%%$%====#%o:2>%:%$$%%$%$-*%;;*-",
".;$O#;#;&;;&$$&&%%$%*&=&OO%%%OO=O-%o%%%X$-**;-;<$#",
"-@--;;-;$%>$$*%*===#==$#==oO=Oo=%,%=$%%oO%-$%:;>;o",
"-;$@-;&@$*%$#$%&==ooO=#+oO==O-O-%=%%$=O%$#;*O$$%%o",
"&;>@@ @;%Oo>#&*%=$=#===#oOO=O==O%%-o$%%:O,$--$-X.%",
"$#;#-;+;>=$$$$%&=###=O#====OO=o=$%$o%%:%-:O%*$%#.%",
"&;-@ ;&@==%%OO=%#$o$OO===$==o$==*O%XOO$-O:%O&$%;&$",
"&-$$--&;%=>*O========O===O=&&#=$*-Oo----,>$X-$--**",
"#--$&&&;=Oo=O,O=OO======$###$%O#$%OO;>--*>-$-&X$o@",
"@-,@@---<##&#OO==O===o.=#+O==%Oo%;OX--$-*$$->%%$$-",
"##-$@&<-;;*&%&%&=$#*&$o%=%%%%$>>>#X-*%$O$$*o--$$%=",
"$&;#@<;-X$*;*;*&%*#%*#$=%$$=$%%=*=;>--$X%O%-$2-*%$",
"$$&;@%;$@;<;;-**$$%%%$#%=*%=>%%%$*;--%Oo--;-%-%*%%",
"*;$;;;2;#-$$$*%<%$&%$%*%>%o=-;-$%-$%%*-O---@%*%-<=",
"*=&&%#-$&&@;%$$-=oo%%*&o$%$==%O-$%$%$&$--$->;@&$=&",
"#&$$$@%-=**;$&--O$$#$O1*%$&>%*-O%%XO#O;>;o%*$%;*=#",
"$%$;$#$;%@$$;%%*>%&*$$;*ooo&*%-O>-$Xo-*;$X#*%&&&%=",
";&@***--;@@*;X##&*&%>>*;$=%$>&OOO-$.$:%;$$<>;&**o=",
"*#%,>:>>;$@$%*$-$-*&*$$;*;--;2X--%O--%&*--;%&&%&=&",
"$$:O:=%=;;*;>;$--*;%$%&;%$#-$-,>--$O->X;-O%;$O&$&O",
"%%OO%OO&*;*O>>&$-;*$%*&*-#.X-*-;O#--O;%>;>*%%%=%$O",
"%$O.=%$o&;%O%,$%$@@%;$$$$-$X$---XO>%%%%%;<%&%%%=O$",
"=O%o$$#$%:-%%%>><X#$$@--#@&#$---*$--%*%*%=%$%#$*=O",
"$%%=%$%o--%:%%;%;;$$;##$$-o;$*----$%&%%%%*%#$%==%%",
"==O%%>>O$%>-*%;$-$$-$;<-$<$-$$;;$$%-%$&$%%%%oo&%%=",
"==#oXO,>%-O%&o:%%-$$$-$-$#$-&%=$&*-$=oo$:%$=&o%o%=",
"%O%-oO=-:=oO%%o%=%$%-:,>&$;$$-;#$;%$&&$$*%%&>>%*&&",
"##==O==O:==OO=OO%>%%-->*oO$>-<;%;*-<-**&&$%**=**$*"
};
