/* XPM */
static char *_632318811606[] = {
/* columns rows colors chars-per-pixel */
"37 50 95 2 ",
"   c #3E3C33",
".  c #403E34",
"X  c #424136",
"o  c #49473B",
"O  c #4C4A3E",
"+  c #45443A",
"@  c #4E4C40",
"#  c #555345",
"$  c #565548",
"%  c #585749",
"&  c #5D5B4C",
"*  c #605F4F",
"=  c #656353",
"-  c #686656",
";  c #6A6857",
":  c #6E6C5A",
">  c #716F5C",
",  c #74715F",
"<  c #767460",
"1  c #7A7764",
"2  c #7D7B66",
"3  c #84826C",
"4  c #88856F",
"5  c #898770",
"6  c #8D8A73",
"7  c #908D76",
"8  c #95927A",
"9  c #99967C",
"0  c #9D9A7F",
"q  c #A29E83",
"w  c #A4A186",
"e  c #A8A586",
"r  c #A7A489",
"t  c #AEAB8C",
"y  c #B7B38F",
"u  c #B0AC90",
"i  c #B4B194",
"p  c #BAB691",
"a  c #BDBA9B",
"s  c #C2BD96",
"d  c #C2BE9A",
"f  c #C6C29D",
"g  c #CAC79E",
"h  c #CFCB9F",
"j  c #DFD99D",
"k  c #E0DA9F",
"l  c #C8C5A5",
"z  c #CDC9A1",
"x  c #CDC9A8",
"c  c #D1CEAC",
"v  c #D5D0A4",
"b  c #DBD6A5",
"n  c #DED8A6",
"m  c #DAD5AC",
"M  c #DDD8A9",
"N  c #D3CFB4",
"B  c #D5D2B5",
"V  c #D8D4B4",
"C  c #DFDAB7",
"Z  c #D4D1BB",
"A  c #DBD7B8",
"S  c #DFDBBA",
"D  c #E3DDA3",
"F  c #E3DDAA",
"G  c #E0DBB0",
"H  c #E2DEB9",
"J  c #E6E0A6",
"K  c #E6E1A9",
"L  c #E9E4AD",
"P  c #E6E0B1",
"I  c #ECE6B2",
"U  c #EFE9B6",
"Y  c #E5E1BD",
"T  c #E8E4BF",
"R  c #F2ECBB",
"E  c #D9D6C2",
"W  c #E9E5C0",
"Q  c #EEEAC4",
"!  c #E4E1CE",
"~  c #F1ECC6",
"^  c #F4EFC8",
"/  c #F6F1C2",
"(  c #F8F3C6",
")  c #F6F2CA",
"_  c #FAF5CB",
"`  c #FDF8CE",
"'  c #E9E6D4",
"]  c #EEEBD8",
"[  c #F1EFDC",
"{  c #FFFAD1",
"}  c #F3F0DD",
"|  c #F6F4E1",
" . c #FDFAE7",
".. c #FFFDE9",
"X. c None",
/* pixels */
"X.X.X.X.X.X.X.X.X.X.X.X.X.X.X.  > 6 8 4 = X.X.X.X.X.X.X.X.X.X.X.X.X.X.X.X.",
"X.X.X.X.X.X.X.X.X.X.X.X.X.X 8 B ) ` { { ~ x 5 X.X.X.X.X.X.X.X.X.X.X.X.X.X.",
"X.X.X.X.X.X.X.X.X.X.X.X.> B { { { { { { { { { l - X.X.X.X.X.X.X.X.X.X.X.X.",
"X.X.X.X.X.X.X.X.X.X.X.6 Q { { { { { { { { { { { T 3 X.X.X.X.X.X.X.X.X.X.X.",
"X.X.X.X.X.X.X.X.X.X.8 ) { { { { { { { { { { { { { ) 7 X.X.X.X.X.X.X.X.X.X.",
"X.X.X.X.X.X.X.X.X.6 _ { { { { { { { { { { { { { { { ) 5 X.X.X.X.X.X.X.X.X.",
"X.X.X.X.X.X.X.X.< Q { { { { { { { { { { { ` { { { { { Q < X.X.X.X.X.X.X.X.",
"X.X.X.X.X.X.X.# S { { { W B B _ { { { { { { { { { { { { C $ X.X.X.X.X.X.X.",
"X.X.X.X.X.X.X.a { { { S E | ! S { ` { { { { { { { { { { { a X.X.X.X.X.X.X.",
"X.X.X.X.X.X.5 ` { { Q Z  ...| B { { { { { { { { { { { { { { 5 X.X.X.X.X.X.",
"X.X.X.X.X.O C { { { B } ....] B { { { { { { { { { { { { { { H O X.X.X.X.X.",
"X.X.X.X.X.w { { { _ Z  .....! W { { { { { { { { { { { { { { ( w X.X.X.X.X.",
"X.X.X.X.$ T { { { _ Z ......Z ) { { { { { { { { { { { { { { I C % X.X.X.X.",
"X.X.X.X.w { { { { { Z ]  .' B { { { { { { ` { { { { { { { { R L w X.X.X.X.",
"X.X.X.@ Y { { { { { ~ N N B _ { { { { { { { { { { { { { { { ( J m @ X.X.X.",
"X.X.X.7 { { { { { { { { _ { { { { { { { { { { { { { { { { { ` L L 7 X.X.X.",
"X.X.X.x { { ` { { { { { { { { { { { { { ` { { { { { { { { { { R D l X.X.X.",
"X.X.; ^ { { { { { ` { { { { { { { { { { { { { { { { { { { { { / D P - X.X.",
"X.X.q { { { { { { { { { { { { { { { { { { { { { { { { { { { { _ D L 0 X.X.",
"X.X.c { { { { { { { { { { { { { { { { { { { { { { { { { { { { { L D f X.X.",
"X.* Q { { { { { { { { { { { { { { { { { { { { { { { { { { { { { I j F & X.",
"X.5 { { { { { { { { { { { { { { { { { { { { { { { { { { { { { { R j P 3 X.",
"X.u { { { { { ` { { { { { ` { { { { { { { { { { { { { { { { { { / j K e X.",
"X.x { { { { { { { { { { { { { { { { { { { { { { { { { { { { { { / D D d X.",
"@ H { { { { { { { { { { { { { { { { { { { { { { { { { ` { { { { ( D k v + ",
"* ~ { { { { { { { { { { { { { { { { { { { { { { { { { { { { { { ( D j M & ",
"< ) { { { { { { ` { { { { { { { { { { { { { { { { { { { { { { { _ D j K < ",
"3 ` { { { { { { { { { { { { { { { { { { { { { { { { { { { { { { _ D j K 3 ",
"6 { { { { { { { { { { { { { { ` { { { { { { { { { { { { { { { { ( D j K 6 ",
"8 { { { { { { { { { { { { { { { { { { { { { { { { { { { { { { { ( k j J 0 ",
"8 { { { { { { { { { { { { { { { { { { { { { { { { { { { { { { { R D k J q ",
"7 { { { { { { { { { { { { { { { { { { { { { { { { { { { { { { { R j j J q ",
"5 { { { { { { { { { { { { { { { { { { { { { { { { { { { { { { { I j j F 9 ",
"1 ` { { { { { { { { { { { { { { { { { { { { { { { { { { { { { ` K j k K 4 ",
"= ^ { { { { { { { { { { { { { { { { { { { ` { { { { { { { { { ( k j k D > ",
"@ W { { { { { { { { { { { { { { { { { { { { { { { { { { { { { U j j k b $ ",
"X.x { { { { { { { { { { { { { { { { { { { { { { { { { { { { _ D j j k s X.",
"X.r { { { { { { { { { { { { { { { { { { { { { { { { { { { { R j j j D 9 X.",
"X.< _ { { { { { { { { { { { { { ` { { { { { { { { ` { { { _ D j j k n = X.",
"X.X.V { { { { { { { { { { { { { { { { { { { { { { { { { ` L j j j D y X.X.",
"X.X.9 { { { { { { { { { { { { { { { { { { { { { { { { { U j k k j D > X.X.",
"X.X.O C { { { { { { { { { { { ` ` { { { { { { { { { { R k j k k D t X.X.X.",
"X.X.X.5 ` { { { { { { { { { { { { { { { { { { { { ` R k k j k k z # X.X.X.",
"X.X.X.X.u { { { { { { { { { { { { { { { { { { { ` U k j j j k n > X.X.X.X.",
"X.X.X.X.  a { { { { { { { { { { { { { { { { ` / K j j j k k n 2 X.X.X.X.X.",
"X.X.X.X.X.X i { { { { { { { { { { { { { ` / L k j k j j D v , X.X.X.X.X.X.",
"X.X.X.X.X.X.X.6 Y { { { ` ` ` ` _ ( R L J n j j j j k J p & X.X.X.X.X.X.X.",
"X.X.X.X.X.X.X.X.# r H { R L F D D D k j j j j D J D f 3 X.X.X.X.X.X.X.X.X.",
"X.X.X.X.X.X.X.X.X.X.O 3 t z M F K K K K K F M g e , X.X.X.X.X.X.X.X.X.X.X.",
"X.X.X.X.X.X.X.X.X.X.X.X.X.X.$ : 2 3 5 5 3 , & X.X.X.X.X.X.X.X.X.X.X.X.X.X."
};
