/* XPM */
static char *_632321529108[] = {
/* columns rows colors chars-per-pixel */
"47 50 232 2 ",
"   c #637A69",
".  c #647B6A",
"X  c #647C6A",
"o  c #657C6A",
"O  c #657C6B",
"+  c #667D6B",
"@  c #667D6C",
"#  c #677D6C",
"$  c #667D6D",
"%  c #667E6C",
"&  c #677E6C",
"*  c #677E6D",
"=  c #677E6E",
"-  c #687E6C",
";  c #687E6D",
":  c #687F6D",
">  c #687E6E",
",  c #687F6E",
"<  c #697F6E",
"1  c #687F6F",
"2  c #697F6F",
"3  c #69806E",
"4  c #69806F",
"5  c #6A806E",
"6  c #6A806F",
"7  c #6A816F",
"8  c #6B816F",
"9  c #698070",
"0  c #6A8070",
"q  c #6B8170",
"w  c #6C8270",
"e  c #6C8271",
"r  c #6D8271",
"t  c #6D8371",
"y  c #6D8372",
"u  c #6E8372",
"i  c #6E8472",
"p  c #6E8473",
"a  c #6F8473",
"s  c #6F8573",
"d  c #708574",
"f  c #708674",
"g  c #708675",
"h  c #718675",
"j  c #728775",
"k  c #728776",
"l  c #728876",
"z  c #738877",
"x  c #748877",
"c  c #748977",
"v  c #748978",
"b  c #758A79",
"n  c #768A79",
"m  c #778B7A",
"M  c #788C7B",
"N  c #798D7D",
"B  c #7A8D7D",
"V  c #7A8E7D",
"C  c #7B8E7E",
"Z  c #7B8F7E",
"A  c #7C907F",
"S  c #9EBD5D",
"D  c #9EBE5C",
"F  c #9FBD5F",
"G  c #9FBE5F",
"H  c #A0BF5E",
"J  c #A0BE5F",
"K  c #A0BF5F",
"L  c #A1BF5F",
"P  c #9FBB61",
"I  c #9EBC60",
"U  c #9FBA65",
"Y  c #A0BD61",
"T  c #A0BE60",
"R  c #A1BF60",
"E  c #A0BE61",
"W  c #A0BD62",
"Q  c #A0BD63",
"!  c #A1BE62",
"~  c #A0BB65",
"^  c #A0BA66",
"/  c #A1BC66",
"(  c #A0B968",
")  c #A0B86B",
"_  c #A1B96B",
"`  c #A1B670",
"'  c #A1B770",
"]  c #A1B671",
"[  c #A1B772",
"{  c #A2B772",
"}  c #A2B673",
"|  c #A2B575",
" . c #A2B576",
".. c #A3B27D",
"X. c #A3B17F",
"o. c #A3B47C",
"O. c #7D9080",
"+. c #7D9180",
"@. c #7E9181",
"#. c #7F9282",
"$. c #809383",
"%. c #829484",
"&. c #829585",
"*. c #839585",
"=. c #839686",
"-. c #849787",
";. c #859787",
":. c #859888",
">. c #879889",
",. c #879989",
"<. c #889A8A",
"1. c #889A8B",
"2. c #899A8B",
"3. c #899B8B",
"4. c #8A9C8D",
"5. c #8B9C8D",
"6. c #8D9E8F",
"7. c #8E9F90",
"8. c #8FA091",
"9. c #90A091",
"0. c #91A193",
"q. c #92A294",
"w. c #93A394",
"e. c #93A395",
"r. c #95A496",
"t. c #95A597",
"y. c #96A698",
"u. c #97A698",
"i. c #98A799",
"p. c #98A79A",
"a. c #98A89A",
"s. c #99A89A",
"d. c #99A89B",
"f. c #9AA99B",
"g. c #9BAA9C",
"h. c #9CAA9D",
"j. c #9CAB9E",
"k. c #9EAC9F",
"l. c #A4AE86",
"z. c #A4AF86",
"x. c #A5AD8B",
"c. c #A5AC8D",
"v. c #A6AD8F",
"b. c #A7A79B",
"n. c #A7A79D",
"m. c #A7A59E",
"M. c #9FADA0",
"N. c #A8A5A2",
"B. c #A8A4A3",
"V. c #A8A5A3",
"C. c #A8A3A4",
"Z. c #A8A3A7",
"A. c #A8A4A4",
"S. c #A8A5A4",
"D. c #A9A4A5",
"F. c #A8A4A6",
"G. c #A9A5A7",
"H. c #A0AEA1",
"J. c #A9A2A9",
"K. c #A9A1AB",
"L. c #A9A3AA",
"P. c #A9A2AB",
"I. c #A3B1A4",
"U. c #A5B2A6",
"Y. c #A5B3A6",
"T. c #A6B3A7",
"R. c #A7B4A8",
"E. c #A8B4A8",
"W. c #A8B5A9",
"Q. c #AAB6AA",
"!. c #ABB7AC",
"~. c #ACB9AD",
"^. c #ADB9AD",
"/. c #ADB9AE",
"(. c #AFBBAF",
"). c #AFBBB0",
"_. c #B1BCB1",
"`. c #B1BDB2",
"'. c #B3BEB3",
"]. c #B7C2B8",
"[. c #B8C2B8",
"{. c #B9C3BA",
"}. c #BAC4BB",
"|. c #BCC6BC",
" X c #BDC6BD",
".X c #BEC8BF",
"XX c #BFC8BF",
"oX c #C0C9C0",
"OX c #C3CCC3",
"+X c #C6CEC6",
"@X c #C7CFC7",
"#X c #C9D1C9",
"$X c #CAD2CA",
"%X c #CBD3CB",
"&X c #CCD3CC",
"*X c #CDD5CD",
"=X c #D0D7D0",
"-X c #D1D8D1",
";X c #D3D9D3",
":X c #D3DAD3",
">X c #D4DAD4",
",X c #D5DBD4",
"<X c #D6DCD5",
"1X c #D9DFD9",
"2X c #DBE0DA",
"3X c #DBE1DB",
"4X c #DCE1DB",
"5X c #DCE1DC",
"6X c #DEE3DD",
"7X c #DFE3DE",
"8X c #DFE4DF",
"9X c #E1E5E0",
"0X c #E1E6E1",
"qX c #E3E7E2",
"wX c #E4E8E4",
"eX c #E7EBE7",
"rX c #E8EBE7",
"tX c #ECEFEC",
"yX c #EFF1EE",
"uX c #F1F3F0",
"iX c #F2F4F2",
"pX c #F5F6F4",
"aX c #F8F9F7",
"sX c #F9FAF9",
"dX c #FAFBFA",
"fX c #FBFBFA",
"gX c #FBFCFB",
"hX c #FCFCFB",
"jX c #FDFDFC",
"kX c #FEFEFE",
"lX c white",
"zX c None",
/* pixels */
"zXzXzXzXzXzXzXzXzXzXzXzXzXzXzXzXzXzXzXR R R R R R R R R R zXzXzXzXzXzXzXzXzXzXzXzXzXzXzXzXzXzX",
"zXzXzXzXzXzXzXzXzXzXzXzXzXzXzXzXR R R R R R R R R R R R R R R R zXzXzXzXzXzXzXzXzXzXzXzXzXzXzX",
"zXzXzXzXzXzXzXzXzXzXzXzXzXzXR R R R R R R R R R R R R R R R R R R R zXzXzXzXzXzXzXzXzXzXzXzXzX",
"zXzXzXzXzXzXzXzXzXzXzXzXR R R R R R R R R R R R R R R R R R R R R R R R zXzXzXzXzXzXzXzXzXzXzX",
"zXzXzXzXzXzXzXzXzXzXzXR R R R R R R zXzXzXzXzXzXzXzXzXzXzXR R R R R R R R zXzXzXzXzXzXzXzXzXzX",
"zXzXzXzXzXzXzXzXzXzXR R R R R R zXzXzXzXzXzXzXzXzXzXzXzXzXzXzXzXR R R R R R zXzXzXzXzXzXzXzXzX",
"zXzXzXzXzXzXzXzXzXR R R R R zXzXzXzXzXzXzXzXzXzXzXzXzXzXzXzXzXzXzXR R R R R R zXzXzXzXzXzXzXzX",
"zXzXzXzXzXzXzXzXR R R R R zXzXzXzXzXzX0 2 , 0 0 0 # # , 0 zXzXzXzXzXzXR R R R R zXzXzXzXzXzXzX",
"zXzXzXzXzXzXzXR R R R R zXzXzXzXzX0 4 4 d M 4 4 4 &.d.d 4 0 0 zXzXzXzXzXR R R R R zXzXzXzXzXzX",
"zXzXzXzXzXzXR R R R R zXzXzXzX, # + 4 0 +XyX8.# 0 >XlXk.+ 0 0 0 zXzXzXzXzXR R R R zXzXzXzXzXzX",
"zXzXzXzXzXzXR R R R zXzXzXzX0 3 7.Y.l 0 $XiXw.# 4 ^.<X;.# , 0 4 0 zXzXzXzXzXR R R R zXzXzXzXzX",
"zXzXzXzXzXR R R R zXzXzXzX0 4 p 3XlXg.+ b #.4 0 4 4 r , + i.:Xr.# 0 zXzXzXzXR R R R R zXzXzXzX",
"zXzXzXzXzXR R R R zXzXzX0 , # # Y.$X+., 4 # zXzXzXzX0 0 , |.lX{.# 0 0 zXzXzXzXR R R R zXzXzXzX",
"zXzXzXzXR R R R zXzXzXzX, b 6.d # 4 , 2 zXzXzXzXzXzXzXzX# Z M.Z # # # 0 zXzXzXR R R R zXzXzXzX",
"zXzXzXzXR R R R zXzXzX0 , .XfX!.# 0 zXzXzXzXzXzXzXzXzXzXzX# + # d Q.y.4 zXzXzXzXR R R R zXzXzX",
"zXzXzXR R R R zXzXzX0 0 # Q.wXd.# zXzXzXzXzXzXzXzXzXzXzXzXzX0 # 9.lXwXz 0 zXzXzXR R R R zXzXzX",
"zXzXzXR R R R zXzXzX, + , 0 l 4 2 zXzXzXzXR R R R R R zXzXzXzX, b XXQ.8 0 zXzXzXzXR R R R zXzX",
"zXzXzXR R R R zXzXzXr ^.{.d , 0 zXzXzXzXR R R R R R R R zXzXzXzX, , - + # , zXzXzXR R R R zXzX",
"zXzXR R R R zXzXzX, M yXfX<.# zXzXzXzXR R R R R R R R R R zXzXzX0 4 4 k.I.r zXzXzXR R R R zXzX",
"zXzXR R R R zXzXzX, 4 k.Q.p 0 zXzXzXR R R R R zXzXzXR R R R zXzXzX, Z iXfX*.# zXzXzXR R R zXzX",
"zXzXR R R R zXzXzX0 , . # 3 0 zXzXzXR R R zXzXzXzXzXzXR R R zXzXzX4 r _.{.d 0 zXzXzXR R R R zX",
"zXzXR R R R zXzX0 4 &.A 0 0 zXzXzXR R R R zXzXzXzXzXzXzXR R R zXzX0 4 # # # 0 zXzXzXR R R R zX",
"zXzXR R R zXzXzX, *.yX9Xb # zXzXzXR R R zXzXzXzXzXzXzXzXR R R zXzXzX4 4 4 4 0 0 zXzXR R R R zX",
"zXzXR R R zXzXzX, A 7X=Xl 4 zXzXzXR R R zXzXzXzXzXzXzXzXR R R zXzXzX0 4 ^.%X+.# zXzXR R R R zX",
"zXR R R R zXzXzX0 3 l g 3 zXzXzXzXR R R zXzXzXzXzXzXzXzXR R R R zXzX2 d 5XlXy.# zXzXzXR R R zX",
"zXR R R R zXzXzX9 # # # 0 zXzXzXR R R zXzXzXzXzXzXzXzXzXzXR R R zXzX0 , 6.H.s 2 zXzXzXR R R R ",
"zXR R R R zXzX0 # y.@X1.# zXzXzXR R R zXzXzXzXzXzXzXzXzXzXR R R zXzXzX0 # # , 0 zXzXzXR R R R ",
"zXR R R R zXzX0 3 +XlX).# zXzXzXR R R zXzXzXzXzXzXzXzXzXzXR R R zXzXzX0 0 # # 2 0 zXzXR R R R ",
"zXR R R R zXzX0 # :.~.Z # zXzXzXR R R zXzXzXzXzXzXzXzXzXzXR R R zXzXzX0 , :.g.d , zXzXR R R R ",
"zXR R R R zXzX0 0 # # 3 0 zXzXzXR R R zXzXzXzXzXzXzXzXzXzXR R R zXzXzX2 r 3XlXd.# zXzXR R R R ",
"zXR R R R zXzX0 3 # # 0 0 zXzXR R R zXzXzXzXzXzXzXzXzXzXzXzXR R R zXzX0 8 (.:X+.# zXzXR R R R ",
"zXR R R zXzXzX, z R.7.4 0 zXzXR R R zXzXzXzXzXzXzXzXzXzXzXzXR R R zXzX2 , , 4 # 0 zXzXR R R R ",
"zXR R R zXzXzX# g.lX5Xd , zXzXR R R zXzXzXzXzXzXzXzXzXzXzXzXR R R zXzXr , b *.r 4 zXzXR R R R ",
"R R R R zXzXzX, +.+XT., 2 zXzXR R R zXzXzXzXzXzXzXzXR R R zXR R R zXzX0 r =XpXq.# zXzXR R R R ",
"R R R R zXzXzX0 , , , , zXzXzXR R R zXzXzXR R R zXzXR R R R R R R zXzX, r OXrX6.# zXzXR R R R ",
"R R R R zXzXzX4 , d , , zXzXzXR R R zXzXzXR R R zXzXR R R zXR R R zXzX0 , r b , 0 zXzXR R R R ",
"R R R R zXzXzX# d.7XY.# zXzXzXR R R zXzXzXR R R zXzXQ Q R zXR R R zXzX0 , r d 4 0 zXzXR R R R ",
"R R R R zXzXzX# (.lX X, zXzXzXR R R zXzXzXzXzXzXzXzXzXzXzXzXR R R zXzX2 0 oXqX<.# zXzXR R R R ",
"R R R R zXzXzX, d q.b , zXzXzXR R R zXzXzXzXzXzXzXzXzXzXzXzXR R R zXzX2 p :XaXq.# zXzXR R R R ",
"R R R R zXzXzX0 # . # r zXzXzXR R R zXzXzXzXzXzXzXzXzXzXzXzXR R R zXzX0 , Z <.r 0 zXzXR R R R ",
"R R R R zXzXzX4 *.d.p 4 zXzXzXR R R zXzXzXR R R R zXzXzXzXzXR R R zXzX0 2 # , , 0 zXzXR R R R ",
"R R R R zXzXzXr 1XlXd.# zXzXzXR R R zXR R R R H R R zXzXzXzXR R R zXzX4 4 ^.*X+.# zXzXR R R R ",
"R R R R zXzXzX4 _.<X&.# zXzXzXR R R R I Q F H H R L L L zXzXR R R zXzX, r 5XlXi.# zXzXR R R R ",
"R R R R zXzXzX4 4 0 4 4 zXzXzXR R K ' G.G.b.x.X. .] ] _ U R R R R zXzX4 4 3.M.s 3 zXzXR R R R ",
"R R R R zXzXzX0 # # 4 0 zXzXzXR R K ' n.m.C.Z.L.K.K.K.K.L.v.L R R zXzX0 , . + 1 0 zXzXR R R R ",
"R R R R zXzX0 4 +.6.r 0 zXzXzXR R R I F D F F P U ^ ) ] X.zXL R R zXzX, d 7.Z # 0 zXzXR R R R ",
"R R R R zXzX3 e >XdXi.# zXzXzXR R H o.m.c.l.l.l.X. .] ' ) zXR R R zXzX, H.dX$Xr 2 zXzXR R R R ",
"R R R R zXzXzX0 }.8X:.# zXzXzXR R H ' m.N.N.N.N.G.N.N.G.G.zXL R R zXzX, 7.0X'., zXzXzXR R R R ",
"R R R R zXzXzX, r d 4 4 zXzXzXR R R zXzXzXzXzXzXzXzXzXzXzXzXR R R zXzX4 , d r 2 zXzXzXR R R R ",
"zXR R zXzXzXzXzX2 , 0 zXzXzXzXzXR zXzXzXzXzXzXzXzXzXzXzXzXzXzXR zXzXzXzX0 , 2 zXzXzXzXR R R zX"
};
