/* XPM */
static char *_633095552076[] = {
/* columns rows colors chars-per-pixel */
"50 47 211 2 ",
"   c #1D0303",
".  c #040704",
"X  c #200D07",
"o  c #280907",
"O  c #30140E",
"+  c #0D2B05",
"@  c #163A0C",
"#  c #13300B",
"$  c #2C2C12",
"%  c #34321A",
"&  c #441312",
"*  c #432E2D",
"=  c #503C39",
"-  c #19440D",
";  c #18470A",
":  c #1B4419",
">  c #1F4B1C",
",  c #1F4B11",
"<  c #214B19",
"1  c #24521E",
"2  c #285918",
"3  c #2C641B",
"4  c #2F681C",
"5  c #316D1C",
"6  c #35721E",
"7  c #1D4724",
"8  c #234F27",
"9  c #284E29",
"0  c #265521",
"q  c #2D5C23",
"w  c #27582A",
"e  c #375829",
"r  c #2A5D31",
"t  c #2F6423",
"y  c #326526",
"u  c #346D26",
"i  c #366C2C",
"p  c #3B6826",
"a  c #3A7623",
"s  c #3D7925",
"d  c #3A7329",
"f  c #3F7D29",
"g  c #377322",
"h  c #3F7130",
"j  c #3B6838",
"k  c #564F3A",
"l  c #436D29",
"z  c #417B26",
"x  c #437D2A",
"c  c #447328",
"v  c #4D6E34",
"b  c #447934",
"n  c #577A38",
"m  c #5B4240",
"M  c #6C4846",
"N  c #4D7D42",
"B  c #73725E",
"V  c #796B67",
"C  c #7A7F65",
"Z  c #916B64",
"A  c #8F7067",
"S  c #3D8223",
"D  c #458D27",
"F  c #44832B",
"G  c #49852D",
"H  c #468D29",
"J  c #4A8D2D",
"K  c #428626",
"L  c #4C942D",
"P  c #4F992E",
"I  c #509A2F",
"U  c #478231",
"Y  c #4B8433",
"T  c #4C8C33",
"R  c #4E873B",
"E  c #518A33",
"W  c #548D3C",
"Q  c #528538",
"!  c #4E9232",
"~  c #4F9930",
"^  c #539434",
"/  c #539C32",
"(  c #54933A",
")  c #5B943B",
"_  c #559A39",
"`  c #5A9C3B",
"'  c #609C3E",
"]  c #56A134",
"[  c #5AA536",
"{  c #5CA43A",
"}  c #5EA939",
"|  c #56A038",
" . c #62A43F",
".. c #62AD3D",
"X. c #66B13F",
"o. c #5C9C41",
"O. c #568A4F",
"+. c #619E46",
"@. c #649A4B",
"#. c #689756",
"$. c #719857",
"%. c #70855A",
"&. c #5FA541",
"*. c #63A342",
"=. c #65AB43",
"-. c #6AAB44",
";. c #65A349",
":. c #6BAB4B",
">. c #69A849",
",. c #73AC4D",
"<. c #67B141",
"1. c #6AB343",
"2. c #6FB845",
"3. c #6DB24A",
"4. c #71BA47",
"5. c #72B54D",
"6. c #74BB4B",
"7. c #78BF4D",
"8. c #70B245",
"9. c #6FAE50",
"0. c #6DA453",
"q. c #71AD53",
"w. c #76A756",
"e. c #6FB251",
"r. c #74B552",
"t. c #7BB456",
"y. c #76BB52",
"u. c #7ABC55",
"i. c #7EB55B",
"p. c #7DBC5A",
"a. c #77B158",
"s. c #769867",
"d. c #698664",
"f. c #7AC04E",
"g. c #7DC253",
"h. c #7EC258",
"j. c #83B75D",
"k. c #809F74",
"l. c #84BC64",
"z. c #8ABF69",
"x. c #87BB67",
"c. c #92B679",
"v. c #82A86F",
"b. c #82C656",
"n. c #82CB55",
"m. c #83C45C",
"M. c #85C95B",
"N. c #89CB5E",
"B. c #8CD55B",
"V. c #86D055",
"C. c #85C462",
"Z. c #89C664",
"A. c #86C960",
"S. c #8CCC64",
"D. c #8EC36B",
"F. c #8FC96B",
"G. c #90CF65",
"H. c #92C36E",
"J. c #92CD6C",
"K. c #8FD360",
"L. c #91D165",
"P. c #95D26B",
"I. c #98D46F",
"U. c #9DDC6E",
"Y. c #8EC172",
"T. c #94C371",
"R. c #96CD72",
"E. c #99CD76",
"W. c #9DCC7B",
"Q. c #99C774",
"!. c #97D271",
"~. c #9CD474",
"^. c #9ED479",
"/. c #9DD87B",
"(. c #A2CD7E",
"). c #A1D57C",
"_. c #A3DB7C",
"`. c #A0D777",
"'. c #9DE165",
"]. c #A3E569",
"[. c #AAE576",
"{. c #9A9F96",
"}. c #A9918A",
"|. c #9CBC85",
" X c #9AB484",
".X c #A7B797",
"XX c #A4A989",
"oX c #B1BEA8",
"OX c #ACADAA",
"+X c #9DC181",
"@X c #A4CE82",
"#X c #A3CB89",
"$X c #A4D382",
"%X c #AAD386",
"&X c #A5DA82",
"*X c #ABDC89",
"=X c #ADD78C",
"-X c #B0DD8D",
";X c #B1DB94",
":X c #B6DA9C",
">X c #ABC498",
",X c #AEE390",
"<X c #B6E495",
"1X c #BCC8B3",
"2X c #B5C6AA",
"3X c #C5D2BB",
"4X c #C2E1A8",
"5X c #D7D7D5",
"6X c #D4E7C0",
"7X c #E4E1E5",
"8X c None",
/* pixels */
"8X8X8X8X8X8X8X8X8X8X8X8X8X8X8X8X8X8X8X8X8X8X8X8X8X8X8X8X8X8X8X8X8X8X8X8X8X8X8X8X8X8X8X8X8X8X8X8X8X8X",
"8X8X8X8X8X8X8X8X8X8X8X8X8X8X8X8X8X8X8X8X8X8X8X8X8X-.-.8X-.8X8X8X8X8X8X8X8X8X8X8X8X8X8X8X8X8X8X8X8X8X",
"8X8X8X8X8X8X8X8X8X8X8X8X8X8X8X8X8X8X8X8X8X8X8X<X,X~.P.P.b.3.8X8X8X8X8X8X8X8X8X8X8X8X8X8X8X8X8X8X8X8X",
"8X8X8X8X8X8X8X8X8X8X8X8X8X8X8X8X8X8X8X<X*X_./.`._.&X&X&X*Xx.r w 8X8X8X8X8X8X8X8X8X8X8X8X8X8X8X8X8X8X",
"8X8X8Xe 8X8X8X8X8X8X8X8X8X8X8Xr w r O.C.p.h.P.[.[.[._._.Y.j e 9 7 8X8X8X8X8X8X8X8X8X8X8X8X8X8X8X8X8X",
"8Xv ' ) x.8X8X8X8X8X8X8X8X8X8X8 d.v.O.( =.g.].].].].[._.a.#.c.+Xs.8X8X8X8X8X8X8X8X8X8X8X8X8X8X8X8X8X",
"8Xl x ^ q.z.8X8X8X8X8X8X8X8X8X8X4X X1X.X+.B.b. .b.-.5.U.p.oX5X>X;X8X8X8X8X8X8X8X8X8X8X8X8X8X8X8X8X8X",
"8Xp x G ' t.H.8X8X8X8X8X8X8X8X3X(.1X5XOX0.n.G @ ' @ 2 K.l.{.7X3XE.&X8X8X8X8X8X8X8X8X8X8X8X8X8X8X8X8X",
"8X8XW x E  .j.z.8X8X8X8X8X8X8X:XD.v.oXk.` f.8.' 7.l Q K.b.c.2X|.R./.8X8X8X8X8X8X8X8X8X8X8X8X8X8X8X8X",
"8X8X8Xx x E  .j.H.8X8X8X8X8XO.#Xi.^ G p F =.V.K.B.B.B.b.>.n 0.H.!.J.F.8X8X8X8X8X8X8X8X8X8X8X8X8X8X8X",
"8X8X8XQ z F ^ *.t.z.Q.8X8X8XN z.>.` l X O 4 )  .=.-. .l $   v N.S.S.@.8X8X8X8X8X8X8X8X8X8X@Xc.%Xs.8X",
"8X8X8XW z z F E ' q.i.x.8X9 y *.` ` c X   X B .X%. XC X   X Q b.M.M.O.8X8X8X8X8X8X8X8X8X=X(.z.z.$.8X",
"8X8X8X8XG s z x J ) ;.>.,.h 0 F _ _ ! $     * V * A =     % =.g.A.p.i 8X8X8X8X8X8X8X-X%X(.c.t.' e 8X",
"8X8X8X8XW z s z x J ( ` ' b 1 y ! _ / p % m O o o o & M k E y.p.A.o.0 8X8X8X8X;X-X%X(.(.H.j.' c 8X8X",
"8X8X8X8X8XU a a z K J ^ ` ( q 1 u ! ^ ! @..XA }.Z }.Z XXw.3.u.m.e.i 0 #.8X;X*X_.(.(.(.z.j.,.) 8X8X8X",
"8X8X8X8X8XW z a a s K ~ | { Y 1 > u T ^ ! ( $. X X|.w.` &.t.m.r.b 0 n ).%X_.E.H.H.H.j.j.,. .8X8X8X8X",
"8X8X8X8X8X8XQ f g s S ! ` { &.U 1 > t F T J L ^ / / ^ *.r.9.W i w b z.$X$XE.D.i.t.t.8.,.' ' 8X8X8X8X",
"8X8X8X8X8X8X8XY f s H _ { =.*.*.T t > 0 y s d t u T ( ( b t 1 8 R l.^.^.^.Z.r.-.=. . .` _ 8X8X8X8X8X",
"8X8X8X8X8X8X8X8XY T w.r.=.&.=.=.=.o.d 0 1 : : : : 0 1 < < 0 b ;.D.^.^./.!.h.=.| ` ^ ^ ^ 8X8X8X8X8X8X",
"8X8X8X8X8X8X8X8X8X8X#XC.=.=.=.3.:.3.=.) b i q 0 q q i b W ;.p.H.R.E.^.^.S.5.| ^ L E J 8X8X8X8X8X8X8X",
"8X8X8X8X8X8X8X8X8X8X:XZ.5.1.:.3.r.r.r.r.3.:.>.*.*.>.:.r.p.C.H.!.^.^.^.!.A.1.~ J G Y 8X8X8X8X8X8X8X8X",
"8X8X8X8X8X8X8X8X8X8X;Xl.3.3.3.3.5.y.u.h.p.p.u.p.p.p.C.C.D.R.R.^.^.^.^.!.A.&.T Y 8X8X8X8X8X8X8X8X8X8X",
"8X8X8X8X8X8X8X8X8X8X$Xp.5.5.5.5.y.u.h.m.A.A.A.Z.Z.F.F.R.!.^.^.^.^.$X^.!.p.( 8X8X8X8X8X8X8X8X8X8X8X8X",
"8X8X8X8X8X8X8X8X8X4XE.p.y.5.6.y.u.h.b.A.S.F.J.P.J.!.!.!.^.^.^.$X$X^./.~.C.8X8X8X8X8X8X8X8X8X8X8X8X8X",
"8X8X8X8X8X8X8X8X8X:XF.y.5.5.5.6.g.j.m.N.G.G.P.I.~.~./.`.^.`.).$X$X/.)./.8X8X8X8X8X8X8X8X8X8X8X8X8X8X",
"8X8X8X8X8X8X8X8X8X=XC.r.3.5.6.u.g.m.N.S.G.P.I.I.~.~.`.`.`.).).^.^.^.^.^.8X8X8X8X8X8X8X8X8X8X8X8X8X8X",
"8X8X8X8X8X8X8X8X4XW.y.3.1.3.6.y.g.b.N.G.G.P.I.I.~.~.`.`.).).`.^.^.^./.!.8X8X8X8X8X8X8X8X8X8X8X8X8X8X",
"8X8X8X8X8X8X8X8X;XZ.e.=.1.3.4.6.g.b.N.N.G.P.P.I.I.~.`.`.`.`.^.^././.!.P.P.8X8X8X8X8X8X8X8X8X8X8X8X8X",
"8X8X8X8X8X8X8X8X$Xp.=.=.=.1.4.6.g.b.M.N.S.G.P.P.I.U.`.`.`.`.~.~.~.!.J.G.S.8X8X8X8X8X8X8X8X8X8X8X8X8X",
"8X8X8X8X8X8X8X;XF.3.} } ..X.2.f.u.g.b.N.N.K.K.G.L.P.I.~.~.~.~.~.!.G.S.h.A.8X8X8X8X8X8X8X8X8X8X8X8X8X",
"8X8X8X8X8X8X8X$Xh.&.] [ } X.1.6.6.f.g.b.b.M.N.N.G.G.L.P.P.I.P.P.G.S.M.h.h.8X8X8X8X8X8X8X8X8X8X8X8X8X",
"8X8X8X8X8X8X8XF.3.| / ] [ ..X.1.4.6.7.f.b.b.b.M.N.N.N.G.G.G.L.S.S.M.g.h.A.8X8X8X8X8X8X8X8X8X8X8X8X8X",
"8X8X8X8X8X8X8Xh.=.| / ] [ } <.<.1.2.2.f.f.f.f.f.g.n.M.N.b.V.N.N.M.n.7.7.h.8X8X8X8X8X8X8X8X8X8X8X8X8X",
"8X8X8X8X8X8X8Xy.&.~ I / [ [ } ..<.1.2.2.2.2.f.f.f.f.g.g.n.n.b.b.b.j.6.6.h.8X8X8X8X8X8X8X8X8X8X8X8X8X",
"8X8X8X8X8X8X8X3.| ~ ~ ] ] [ [ } } X.X.1.1.2.2.f.2.f.f.f.f.n.f.n.f.6.4.4.u.8X8X8X8X8X8X8X8X8X8X8X8X8X",
"8X8X8X8X8X8X8X:._ L ~ / ] [ [ [ } } X.X.X.1.1.2.X.2.2.2.4.f.X.4.4.2.2.2.y.8X8X8X8X8X8X8X8X8X8X8X8X8X",
"8X8X8X8X8X8X8X8X_ L ~ ~ / / ] ] ] [ [ [ } X.X.X.X.X.X.X.X.X.X.X.1.X.<.1.r.8X8X8X8X8X8X8X8X8X8X8X8X8X",
"8X8X8X8X8X8X8X8Xo.T L ~ ~ / / / ] ] ] [ ] [ [ } } X.....X.X......... .=.e.8X8X8X8X8X8X8X8X8X8X8X8X8X",
"8X8X8X8X8X8X8X8X8X! ! L P P I I P / P P I I ] ] [ [ [ [ [ [ [ [ [ { { *.9.8X8X8X8X8X8X8X8X8X8X8X8X8X",
"8X8X8X8X8X8X8X8X8X8X~ S L L P P L P P P P P I I I I I I I ] ] ] / / ^ +.8X8X8X8X8X8X8X8X8X8X8X8X8X8X",
"8X8X8X8X8X8X8X8X8X8XR F J J J J L D D D D D D D D D D L L L L ! T T ( ;.8X8X8X8X8X8X8X8X8X8X8X8X8X8X",
"8X8X8X8X8X8X8X8X8X8X8XU f S F S F K K S S K S 6 S S S S f S S S f U o.8X8X8X8X8X8X8X8X8X8X8X8X8X8X8X",
"8X8X8X8X8X8X8X8X8X8X8X8Xg 5 t 4 3 5 6 6 6 6 6 6 5 5 5 4 4 3 2 3 g T 8X8X8X8X8X8X8X8X8X8X8X8X8X8X8X8X",
"8X8X8X8X8X8X8X8X8X8X8X8X8X8X3 , ; ; ; < 8X8X3 3 2 2 8X8X, - - 2 d R 8X8X8X8X8X8X8X8X8X8X8X8X8X8X8X8X",
"8X8X8X8X8X8X8X8X8X8X8X8X8X8X# + + + # 8X8X8X8X8X8X8X8X8X8X- # @ > 8X8X8X8X8X8X8X8X8X8X8X8X8X8X8X8X8X",
"8X8X8X8X8X8X8X8X8X8X8X8X8X8X8X. 8X8X8X8X8X8X8X8X8X8X8X8X8X8X8X8X8X8X8X8X8X8X8X8X8X8X8X8X8X8X8X8X8X8X",
"8X8X8X8X8X8X8X8X8X8X8X8X8X8X8X8X8X8X8X8X8X8X8X8X8X8X8X8X8X8X8X8X8X8X8X8X8X8X8X8X8X8X8X8X8X8X8X8X8X8X"
};
