/* XPM */
static char *_633095317471[] = {
/* columns rows colors chars-per-pixel */
"50 47 211 2 ",
"   c #1D0303",
".  c #040704",
"X  c #200D07",
"o  c #280907",
"O  c #30140E",
"+  c #0D2B05",
"@  c #163A0C",
"#  c #13300B",
"$  c #2C2C12",
"%  c #34321A",
"&  c #441312",
"*  c #432E2D",
"=  c #503C39",
"-  c #19440D",
";  c #18470A",
":  c #1B4419",
">  c #1F4B1C",
",  c #1F4B11",
"<  c #214B19",
"1  c #24521E",
"2  c #285918",
"3  c #2C641B",
"4  c #2F681C",
"5  c #316D1C",
"6  c #35721E",
"7  c #1D4724",
"8  c #234F27",
"9  c #284E29",
"0  c #265521",
"q  c #2D5C23",
"w  c #27582A",
"e  c #375829",
"r  c #2A5D31",
"t  c #2F6423",
"y  c #326526",
"u  c #346D26",
"i  c #366C2C",
"p  c #3B6826",
"a  c #3A7623",
"s  c #3D7925",
"d  c #3A7329",
"f  c #3F7D29",
"g  c #377322",
"h  c #3F7130",
"j  c #3B6838",
"k  c #564F3A",
"l  c #436D29",
"z  c #417B26",
"x  c #437D2A",
"c  c #447328",
"v  c #4D6E34",
"b  c #447934",
"n  c #577A38",
"m  c #5B4240",
"M  c #6C4846",
"N  c #4D7D42",
"B  c #73725E",
"V  c #796B67",
"C  c #7A7F65",
"Z  c #916B64",
"A  c #8F7067",
"S  c #3D8223",
"D  c #458D27",
"F  c #44832B",
"G  c #49852D",
"H  c #468D29",
"J  c #4A8D2D",
"K  c #428626",
"L  c #4C942D",
"P  c #4F992E",
"I  c #509A2F",
"U  c #478231",
"Y  c #4B8433",
"T  c #4C8C33",
"R  c #4E873B",
"E  c #518A33",
"W  c #548D3C",
"Q  c #528538",
"!  c #4E9232",
"~  c #4F9930",
"^  c #539434",
"/  c #539C32",
"(  c #54933A",
")  c #5B943B",
"_  c #559A39",
"`  c #5A9C3B",
"'  c #609C3E",
"]  c #56A134",
"[  c #5AA536",
"{  c #5CA43A",
"}  c #5EA939",
"|  c #56A038",
" . c #62A43F",
".. c #62AD3D",
"X. c #66B13F",
"o. c #5C9C41",
"O. c #568A4F",
"+. c #619E46",
"@. c #649A4B",
"#. c #689756",
"$. c #719857",
"%. c #70855A",
"&. c #5FA541",
"*. c #63A342",
"=. c #65AB43",
"-. c #6AAB44",
";. c #65A349",
":. c #6BAB4B",
">. c #69A849",
",. c #73AC4D",
"<. c #67B141",
"1. c #6AB343",
"2. c #6FB845",
"3. c #6DB24A",
"4. c #71BA47",
"5. c #72B54D",
"6. c #74BB4B",
"7. c #78BF4D",
"8. c #70B245",
"9. c #6FAE50",
"0. c #6DA453",
"q. c #71AD53",
"w. c #76A756",
"e. c #6FB251",
"r. c #74B552",
"t. c #7BB456",
"y. c #76BB52",
"u. c #7ABC55",
"i. c #7EB55B",
"p. c #7DBC5A",
"a. c #77B158",
"s. c #769867",
"d. c #698664",
"f. c #7AC04E",
"g. c #7DC253",
"h. c #7EC258",
"j. c #83B75D",
"k. c #809F74",
"l. c #84BC64",
"z. c #8ABF69",
"x. c #87BB67",
"c. c #92B679",
"v. c #82A86F",
"b. c #82C656",
"n. c #82CB55",
"m. c #83C45C",
"M. c #85C95B",
"N. c #89CB5E",
"B. c #8CD55B",
"V. c #86D055",
"C. c #85C462",
"Z. c #89C664",
"A. c #86C960",
"S. c #8CCC64",
"D. c #8EC36B",
"F. c #8FC96B",
"G. c #90CF65",
"H. c #92C36E",
"J. c #92CD6C",
"K. c #8FD360",
"L. c #91D165",
"P. c #95D26B",
"I. c #98D46F",
"U. c #9DDC6E",
"Y. c #8EC172",
"T. c #94C371",
"R. c #96CD72",
"E. c #99CD76",
"W. c #9DCC7B",
"Q. c #99C774",
"!. c #97D271",
"~. c #9CD474",
"^. c #9ED479",
"/. c #9DD87B",
"(. c #A2CD7E",
"). c #A1D57C",
"_. c #A3DB7C",
"`. c #A0D777",
"'. c #9DE165",
"]. c #A3E569",
"[. c #AAE576",
"{. c #9A9F96",
"}. c #A9918A",
"|. c #9CBC85",
" X c #9AB484",
".X c #A7B797",
"XX c #A4A989",
"oX c #B1BEA8",
"OX c #ACADAA",
"+X c #9DC181",
"@X c #A4CE82",
"#X c #A3CB89",
"$X c #A4D382",
"%X c #AAD386",
"&X c #A5DA82",
"*X c #ABDC89",
"=X c #ADD78C",
"-X c #B0DD8D",
";X c #B1DB94",
":X c #B6DA9C",
">X c #ABC498",
",X c #AEE390",
"<X c #B6E495",
"1X c #BCC8B3",
"2X c #B5C6AA",
"3X c #C5D2BB",
"4X c #C2E1A8",
"5X c #D7D7D5",
"6X c #D4E7C0",
"7X c #E4E1E5",
"8X c None",
/* pixels */
"8X8X8X8X8X8X8X8X8X8X8X8X8X8X8X8X8X8X8X8X8X8X8X8X8X8X8X8X8X8X8X8X8X8X8X8X8X8X8X8X8X8X8X8X8X8X8X8X8X8X",
"8X8X8X8X8X8X8X8X8X8X8X8X8X8X8X8X8X8X8X8X8X-.8X-.-.8X8X8X8X8X8X8X8X8X8X8X8X8X8X8X8X8X8X8X8X8X8X8X8X8X",
"8X8X8X8X8X8X8X8X8X8X8X8X8X8X8X8X8X8X8X8X8.M.J.I.~.,X,X8X8X8X8X8X8X8X8X8X8X8X8X8X8X8X8X8X8X8X8X8X8X8X",
"8X8X8X8X8X8X8X8X8X8X8X8X8X8X8X8X8X8Xw r z.*X&X&X&X_././._.,X<X8X8X8X8X8X8X8X8X8X8X8X8X8X8X8X8X8X8X8X",
"8X8X8X8X8X8X8X8X8X8X8X8X8X8X8X8X8X7 8 r j T.)._.[.[.[.P.m.m.C.O.j 8 r 8X8X8X8X8X8X8X8X8X8X8Xe 8X8X8X",
"8X8X8X8X8X8X8X8X8X8X8X8X8X8X8X8X8Xs.+Xc.#.q.`.[.].U.].].g.=.( R s.d.7 8X8X8X8X8X8X8X8X8X8Xx.) ' v 8X",
"8X8X8X8X8X8X8X8X8X8X8X8X8X8X8X8X8X;X>X5XoXj.U.6...n.-.b.B.o..XoX+X4X8X8X8X8X8X8X8X8X8X8XD.,.) x p 8X",
"8X8X8X8X8X8X8X8X8X8X8X8X8X8X8X8X&X~.3X7X{.l.B.q @ ' @ Y n.$.OX7X1X+X6X8X8X8X8X8X8X8X8XT.t.) G x p 8X",
"8X8X8X8X8X8X8X8X8X8X8X8X8X8X8X8X~.!.|.2Xc.j.K.E l 7.) 5.n._ k.oXs.F.:X8X8X8X8X8X8X8XH.j.' E x W 8X8X",
"8X8X8X8X8X8X8X8X8X8X8X8X8X8X8XY.J.J.H.0.n >.b.B.B.B.B.n...F l G ( i.$XO.8X8X8X8X8XH.j. .E x x 8X8X8X",
"8Xs.%Xc.(.8X8X8X8X8X8X8X8X8X8X;.G.S.A.v   $ l  .-.-...) 4 O X l ` >.z.N 8X8X8XQ.z.t. .E G z Y 8X8X8X",
"8X$.z.H.(.-X8X8X8X8X8X8X8X8X8XR Z.N.b.E X   X C  X%..XB X   X c ` ` &.y 9 8Xx.i.,.' E G z x W 8X8X8X",
"8Xe ' w.T.(.(.-X8X8X8X8X8X8X8Xi u.m.h.-.%     = A * V *   o $ E _ _ U 0 l :.>.=.` J F z a G 8X8X8X8X",
"8X8Xc ' j.z.(.(.%X-X<X8X8X8X8X9 +.m.h.y.E k M & o o o O = % l ^ _ ! t 0 Y +.) ^ G F z a z W 8X8X8X8X",
"8X8X8X) ,.x.z.Q.(.(.).*X-X8X#.w i :.m.p.3.q.XXZ }.A }.Z .X@.J ^ ! u 1 q ( ` _ J F a a a U 8X8X8X8X8X",
"8X8X8X8X' ,.j.z.H.Q.Q.Q.$X&XW.Q 0 b q.m.t.*.' $.|. X|.$.( L ! T u > 1 U &.` ! K s a a z ( 8X8X8X8X8X",
"8X8X8X8X'  .-.,.t.t.i.Z.E.$X$Xz.b w i ( q.r.*.^ / _ ^ L H T F t > 1 b *.{ { ! S s g s R 8X8X8X8X8X8X",
"8X8X8X8X8X_ '  . .=.:.a.D.^.^.^.D.b 8 0 q b W ( T u t d d y 1 1 t T *.=.*.{ _ H s f Y 8X8X8X8X8X8X8X",
"8X8X8X8X8X8X^ ^ / _ | =.h.J.^.^.E.F.0.c 1 > 1 1 1 > : : : 8 1 d o.=.>.=.=.} a.q.Y R 8X8X8X8X8X8X8X8X",
"8X8X8X8X8X8X8XT J ! ~ | 6.S.^.^.^.E.F.p.;.W b y t q 1 q u U o.=.:.3.1.=.=.=.l.#X8X8X8X8X8X8X8X8X8X8X",
"8X8X8X8X8X8X8X8XG G J ^ 1.A.!.^.^.E.R.F.C.p.a.:.;.*.*.;.:.3.r.r.r.3.3.:.:.3.D.:X8X8X8X8X8X8X8X8X8X8X",
"8X8X8X8X8X8X8X8X8X8XY T &.A.!.^.^.^.^.E.R.F.C.h.p.p.p.p.p.p.p.u.u.6.3.2.3.2.l.;X8X8X8X8X8X8X8X8X8X8X",
"8X8X8X8X8X8X8X8X8X8X8X8X( p.!./.$X/.).^.~.R.J.F.F.S.S.Z.A.A.m.h.u.y.6.5.3.6.u.$X8X8X8X8X8X8X8X8X8X8X",
"8X8X8X8X8X8X8X8X8X8X8X8X8XC.~.).).$X).).^.^.~.E.!.J.J.G.F.S.N.m.h.y.r.6.5.r.p.E.4X8X8X8X8X8X8X8X8X8X",
"8X8X8X8X8X8X8X8X8X8X8X8X8X8X~./.).).).).).).`.E.~.~.I.P.P.S.Z.N.h.g.y.6.r.5.u.F.:X8X8X8X8X8X8X8X8X8X",
"8X8X8X8X8X8X8X8X8X8X8X8X8X8X~./.).).).).`.).`.`.~.~.I.P.P.G.S.N.h.g.y.6.3.2.5.C.=X8X8X8X8X8X8X8X8X8X",
"8X8X8X8X8X8X8X8X8X8X8X8X8X8X!./.).(.).).).`.`.`.~.~.I.I.P.L.S.N.M.g.f.3.3.3.3.u.^.4X8X8X8X8X8X8X8X8X",
"8X8X8X8X8X8X8X8X8X8X8X8X8X!.P.!.~.~.~.).`.).`.`.~.U.I.P.L.S.S.N.h.h.f.2.2.=.=.3.D.;X8X8X8X8X8X8X8X8X",
"8X8X8X8X8X8X8X8X8X8X8X8X8XS.S.P.R.~.^.~.`.`.`.`.I.I.I.L.L.S.N.N.h.g.f.2.1.<.=.=.u.$X8X8X8X8X8X8X8X8X",
"8X8X8X8X8X8X8X8X8X8X8X8X8XA.M.S.G.!.!.~.`.I.I.I.I.I.L.L.S.N.M.b.g.f.6.2.1.} } } 3.F.;X8X8X8X8X8X8X8X",
"8X8X8X8X8X8X8X8X8X8X8X8X8XA.b.m.Z.G.P.P.P.I.I.L.L.K.N.M.M.M.b.g.f.6.4.2.=.} ] ] &.h.$X8X8X8X8X8X8X8X",
"8X8X8X8X8X8X8X8X8X8X8X8X8Xh.g.g.M.S.G.G.G.G.K.N.N.N.M.M.b.f.f.7.6.2.2.1.} [ | | [ 3.Y.8X8X8X8X8X8X8X",
"8X8X8X8X8X8X8X8X8X8X8X8X8Xm.y.g.b.M.N.N.N.N.n.M.b.b.b.f.f.f.4.4.4.4.X.X.} [ ] I / &.h.8X8X8X8X8X8X8X",
"8X8X8X8X8X8X8X8X8X8X8X8X8Xh.7.6.f.b.b.b.b.b.b.b.f.f.7.7.f.6.X.4.X.X.X...} [ ] I ~ } u.8X8X8X8X8X8X8X",
"8X8X8X8X8X8X8X8X8X8X8X8X8Xh.4.4.4.f.7.b.f.f.f.6.7.4.4.4.4.X.X.X.X.....[ ] ] ] ~ ~ | 3.8X8X8X8X8X8X8X",
"8X8X8X8X8X8X8X8X8X8X8X8X8Xy.3.2.4.4.4.4.4.4.4.4.4.2.4.X.X.X.X...} } [ ] ] ] / ~ ~ _ =.8X8X8X8X8X8X8X",
"8X8X8X8X8X8X8X8X8X8X8X8X8Xr.1.=.X.1.X.X.1.X.X.X.X.X.X.........] [ ] ] ] / / / L L o.8X8X8X8X8X8X8X8X",
"8X8X8X8X8X8X8X8X8X8X8X8X8Xe.=.} ....X.X.X...X.......[ ..[ ] ] ] ] ] ] I / I L L T o.8X8X8X8X8X8X8X8X",
"8X8X8X8X8X8X8X8X8X8X8X8X8X9.&.{ [ [ [ [ [ [ [ [ ] ] ] ] I I I I I I I I I P L L ! 8X8X8X8X8X8X8X8X8X",
"8X8X8X8X8X8X8X8X8X8X8X8X8X8X&.( / I ] ] / I I I P P P P P P P P L L P L L L H T 8X8X8X8X8X8X8X8X8X8X",
"8X8X8X8X8X8X8X8X8X8X8X8X8X8X;.o.! ! L L L H L H D D D D D H H H D L L L J T G R 8X8X8X8X8X8X8X8X8X8X",
"8X8X8X8X8X8X8X8X8X8X8X8X8X8X8Xo.U f f S S S S S S S 6 S S S K S S F S S S f S 8X8X8X8X8X8X8X8X8X8X8X",
"8X8X8X8X8X8X8X8X8X8X8X8X8X8X8X8XT a t 3 3 4 5 5 5 5 6 6 6 6 g 6 g 4 5 4 u d 8X8X8X8X8X8X8X8X8X8X8X8X",
"8X8X8X8X8X8X8X8X8X8X8X8X8X8X8X8XT u 2 - - , 8X8X2 3 3 4 8X8X, - @ - ; 2 8X8X8X8X8X8X8X8X8X8X8X8X8X8X",
"8X8X8X8X8X8X8X8X8X8X8X8X8X8X8X8X8X< # # - 8X8X8X8X8X8X8X8X8X8X# + + + # 8X8X8X8X8X8X8X8X8X8X8X8X8X8X",
"8X8X8X8X8X8X8X8X8X8X8X8X8X8X8X8X8X8X8X8X8X8X8X8X8X8X8X8X8X8X8X8X8X8X. 8X8X8X8X8X8X8X8X8X8X8X8X8X8X8X",
"8X8X8X8X8X8X8X8X8X8X8X8X8X8X8X8X8X8X8X8X8X8X8X8X8X8X8X8X8X8X8X8X8X8X8X8X8X8X8X8X8X8X8X8X8X8X8X8X8X8X"
};
