/* XPM */
static char *_51db0933951498f97868f7071eda6d4ySEuuUw5CZTl9mCl[] = {
/* columns rows colors chars-per-pixel */
"50 50 201 2 ",
"   c None",
".  c #020203",
"X  c #0A0205",
"o  c #0B0B0B",
"O  c #120206",
"+  c #1A0207",
"@  c #1D0209",
"#  c #120208",
"$  c #151516",
"%  c #1B1A19",
"&  c #24020A",
"*  c #2A020B",
"=  c #250509",
"-  c #34010B",
";  c #3E010D",
":  c #291C08",
">  c #380213",
",  c #281717",
"<  c #27221D",
"1  c #3A3018",
"2  c #332C26",
"3  c #2F2F30",
"4  c #3D3D3D",
"5  c #2E2A26",
"6  c #4C010E",
"7  c #44010C",
"8  c #58020E",
"9  c #471C0C",
"0  c #440112",
"q  c #4D0211",
"w  c #490119",
"e  c #4A0F18",
"r  c #54011C",
"t  c #5A0217",
"y  c #4D1315",
"u  c #60010F",
"i  c #640212",
"p  c #690115",
"a  c #690517",
"s  c #7C0113",
"d  c #740119",
"f  c #7D011A",
"g  c #740819",
"h  c #760612",
"j  c #4A340B",
"k  c #503611",
"l  c #6D3911",
"z  c #431D23",
"x  c #6C0123",
"c  c #660122",
"v  c #720125",
"b  c #7D0129",
"n  c #75172A",
"m  c #453B33",
"M  c #493E35",
"N  c #4A352B",
"B  c #643139",
"V  c #66460E",
"C  c #6F500F",
"Z  c #754E16",
"A  c #795618",
"S  c #60441D",
"D  c #4B4339",
"F  c #5A4429",
"G  c #604C35",
"H  c #76602C",
"J  c #3D3E40",
"K  c #474748",
"L  c #5D4E42",
"P  c #66574A",
"I  c #6C5D55",
"U  c #705E45",
"Y  c #7D6B5A",
"T  c #756556",
"R  c #785D61",
"E  c #6B6C6C",
"W  c #666767",
"Q  c #726E69",
"!  c #71706F",
"~  c #737475",
"^  c #850113",
"/  c #84011C",
"(  c #8C021D",
")  c #8B0116",
"_  c #930015",
"`  c #98001A",
"'  c #A30019",
"]  c #AD001A",
"[  c #A00014",
"{  c #B4001B",
"}  c #B9001B",
"|  c #B00017",
" . c #84012A",
".. c #8B012D",
"X. c #9A0122",
"o. c #98012E",
"O. c #960130",
"+. c #8D1325",
"@. c #AC0024",
"#. c #A50026",
"$. c #B20025",
"%. c #BA0026",
"&. c #BF0028",
"*. c #AB0137",
"=. c #A50135",
"-. c #B90139",
";. c #B9162E",
":. c #B02F3A",
">. c #C1001E",
",. c #C30022",
"<. c #CB0026",
"1. c #C30029",
"2. c #CD0029",
"3. c #D5002C",
"4. c #D9002E",
"5. c #DA0031",
"6. c #D40F35",
"7. c #CC0C3C",
"8. c #E10036",
"9. c #E5003A",
"0. c #E9003D",
"q. c #855912",
"w. c #915513",
"e. c #8B6512",
"r. c #946C13",
"t. c #9B6314",
"y. c #AB6C16",
"u. c #A77B15",
"i. c #BE7918",
"p. c #C57D17",
"a. c #BF3841",
"s. c #CF0042",
"d. c #DA0045",
"f. c #ED0043",
"g. c #EC004B",
"h. c #F30045",
"j. c #F6004E",
"k. c #F5004A",
"l. c #FA004C",
"z. c #FA004B",
"x. c #FF0051",
"c. c #D42240",
"v. c #CA3B49",
"b. c #836C5C",
"n. c #8A7663",
"m. c #8E7967",
"M. c #937D6A",
"N. c #87676C",
"B. c #C65658",
"V. c #CE4653",
"C. c #D25C62",
"Z. c #D0716E",
"A. c #D06467",
"S. c #AE8216",
"D. c #BD8E16",
"F. c #B48616",
"G. c #D38619",
"H. c #CD9818",
"J. c #E9941B",
"K. c #F69D1E",
"L. c #F89E1E",
"P. c #DDA51A",
"I. c #E5AA1B",
"U. c #E9AD1C",
"Y. c #FBA01F",
"T. c #EEB21D",
"R. c #FCBB1E",
"E. c #F4B51D",
"W. c #9D8772",
"Q. c #95806C",
"!. c #A38C76",
"~. c #B1977F",
"^. c #C88476",
"/. c #7F7F80",
"(. c #8B8B8C",
"). c #858384",
"_. c #9C9A9C",
"`. c #9B9392",
"'. c #908D85",
"]. c #B69C84",
"[. c #A2989A",
"{. c #BEA288",
"}. c #9EA0A0",
"|. c #A8A5A5",
" X c #BABCBC",
".X c #B7B7B7",
"XX c #CD9985",
"oX c #D19D89",
"OX c #C6A98E",
"+X c #C8A58C",
"@X c #CDAF93",
"#X c #CEB194",
"$X c #D1B295",
"%X c #BDBEC0",
"&X c #C9C9C9",
"*X c #DBDBDC",
"=X c #E4E4E4",
"-X c #EBEDEC",
";X c #EEF0F0",
":X c #FEFEFE",
">X c #F4F4F4",
/* pixels */
"                                                  .                                                 ",
"                                              X r O...r @                                           ",
"                                            . t g.h.z.j.s.r #                                       ",
"                                            X X.4.3.4.8.h.j...@                                     ",
"                                            . q 3.3.3.3.4.9.l.=.&                                   ",
"                                # 0 x  . .x 0 + p 2.3.3.3.3.8.l.*.@                                 ",
"                              # ..g.k.f.8.4.3.@.q q $.3.4.3.4.8.l.O.#                               ",
"                            . w j.f.4.3.3.3.3.4.2.d > d %.3.4.3.f.j.v                               ",
"                            . * -.4.4.4.4.4.4.4.4.3.$.p i ( &.3.4.k.d.>                             ",
"                                @ q p / ( ` #.@.%.2.3.3.1.$.@.1.3.8.x...                            ",
"                                    . . - d X.@.1.3.3.3.3.4.4.3.3.4.l.d.* .                         ",
"                                  . @ f 1.4.4.4.4.4.3.3.3.3.3.3.3.4.h.x.-.w X                       ",
"                                . - #.3.3.3.3.3.3.3.3.3.3.3.3.3.3.3.5.j.x.j.O.& .                   ",
"                              . 7 %.3.3.3.3.3.3.4.3.3.3.3.3.3.3.3.3.4.4.9.l.x.s.w .                 ",
"                            . 6 } 3.3.3.3.3.3.3.3.3.3.3.3.3.3.3.3.4.3.3.4.5.h.x.g.c X               ",
"                          . 6 { <.3.3.3.3.3.3.3.3.3.3.3.3.3.3.3.3.3.3.3.3.3.4.0.l.j.v X             ",
"                        . 7 ] >.3.3.3.3.3.3.3.3.3.3.3.3.3.3.3.3.3.3.3.3.3.3.4.3.5.j.j.x .           ",
"                        = [ } ,.3.3.3.3.3.3.3.3.3.3.3.3.3.3.3.3.3.3.3.3.3.3.3.3.4.5.k.j.r .         ",
"                      O ^ } } <.3.3.3.3.4.3.3.3.3.3.3.3.3.3.3.3.3.3.3.3.3.3.3.3.3.3.4.h.d.>         ",
"                    . 8 { } } 3.3.3.3.3.3.3.3.3.3.3.3.4.4.3.3.3.4.3.3.3.3.3.3.3.3.3.3.4.k.*.#       ",
"                    & [ } } >.3.3.3.3.3.3.4.3.3.3.4.4.%./ 1.4.3.3.3.3.3.3.3.3.3.3.3.3.3.4.f.c       ",
"          .       . p } } } <.3.3.3.3.3.3.3.3.3.3.4.1.6 . t 1.4.4.3.3.3.4.3.3.3.3.3.4.3.4.@.*.&     ",
"        . . .     = ' } } } <.3.3.3.3.3.3.3.3.3.3.3./ . . . ; @.4.3.3.3.3.3.3.3.3.3.4.1.p # b v     ",
"        . . .   . 8 } } } } <.3.4.3.3.3.3.3.3.3.4.1.* . . . . @ / 2.3.3.3.3.3.4.4.3.@.0 . . * =.@   ",
"  . X .   . . . O _ } } } } <.3.3.3.3.3.3.3.3.3.3.%.- . . . . . . q $.4.4.3.4.4.1.d + . . . . ..r   ",
". . . . . . . . - { } } } } 3.3.3.3.3.3.3.3.3.3.3.4.&.p @ . . . . . @ p %.3.2.( > . . . . . @ #. .. ",
". . . . . . . . u } } } } } 3.3.3.3.3.3.3.3.3.3.3.3.3.3.n ~ K $ . . . . = p ; . . . . X + f %.4.o.X ",
"    . . . . . X ^ } { } } } <.3.3.3.3.3.3.3.3.3.3.3.3.{ N.:X>X&X(.K $ . . . . . o 4 /.}.z { 3.4.@.# ",
"          . . # ` } } } } } 2.3.4.3.3.3.3.<.<.3.3.4.<.) |.:X:X:X%X}.%X(.J o $ K  X;X:X:XI ) 2.4.%.@ ",
"      . . . . = ] } } } } } 3.3.3.3.3.3.,.} >.3.3.3.>.f |.:X:X*X% X .X:X=XW E 3 =X:X-X-X! ^ >.3.1.= ",
"      . .     - { { } } { } 3.3.3.3.3.3.} } } <.3.<.} ^ ).:X:X-XE W =X:X%XJ _.Q._.R B B e s } <.1.= ",
"              - { } } } } } <.3.3.3.4.<.} { } %.4.,.} ` N  X X[.`._.|.(.H e.H D 6 ` | { { { } <.%.& ",
"              - { } } } { } <.<.,.3.3.<.} } } } 3.>.} } 8 y g ^ _ 8 j F.E.R.E.D.V u | } } } | >.$.@ ",
"              * ] } } } } } } { } } 3.<.} } } &.3.>.} } | | } { h q.T.R.R.R.R.R.T.r.9 [ } } } 3.#.X ",
"              @ [ } } } } } } } } } <.3.} } } } 3.,.} } } } | h r.E.R.R.R.R.R.R.R.R.F.9 _ } >.4./ . ",
"              X ) } } } { } } } } } <.3.,.} } 2.3.3.} } } } h e.R.R.R.R.R.R.R.R.R.R.R.D.9 ] 3.3.8 . ",
"              . u } } } } } { } } ,.3.3.3.3.<.3.6.c.v.V.B.:.: U.R.R.R.R.R.R.R.R.R.R.R.R.S.i <.1.*   ",
"                * { } } } } } } } <.3.3.3.6.V.Z.^.@X@X#X$XY < H F.H.U.T.E.R.R.R.R.R.R.R.R.C X.` .   ",
"                X h } } { } } { } } <.c.A.oX@X$X$X#X#X#X#XT (.&X|.Q 1 j C A r.F.H.I.R.R.R.D.t ; .   ",
"                . = [ } } } } } } ,.B.+X#X#X@X@X$X#X#X#X$XQ.E *X`.U A y.i.i.y.t.q.A C S.T.U.: X     ",
"                  . 7 ] } } } } :.^.@X@X@X@X@X@X@X@X@X@X#XOXI 5 q.J.K.L.L.L.K.L.J.w.g ( l S.: .     ",
"                    . 6 ] } } a.XX#X@X@X@X@X@X@X@X@X@X#X#X#XOXY S p.K.K.K.K.K.G.Z +.3.5.%.= X       ",
"                    . . 7 ` V.XX#X#X@X@X@X@X@X@X#X@X@X@X#X@X@X#X!.G q.G.K.J.t.F W.C.4.2.t X         ",
"                      . . = b.OX#X@X@X@X@X@X@X@X@X@X@X@X@X@X@X@X@XOXY N V k G ].$XoX;.0 . .         ",
"                          . o D W.OX$X#X@X@X@X@X@X@X@X#X#X@X@X@X@X@X$X].Y m.@X$XOXn., . .           ",
"                            . . o m m.+X@X$X$X@X@X@X@X@X#X#X#X@X@X@X@X#X$X$X+XM.m o .               ",
"                                . . o < G M.~.+X$X$X$X$X#X#X#X#X$X@X@X{.W.I 2 o . .                 ",
"                                    . . . X $ 2 D P Y n.Q.Q.Q.n.Y P m < o . . .                     ",
"                                            . . . . . X X . o . . . . . .                           ",
"                                                        . . .                                       "
};
