/* XPM */
static char *_632997153932[] = {
/* columns rows colors chars-per-pixel */
"50 49 159 2 ",
"   c #853716",
".  c #A74E1C",
"X  c #9F552A",
"o  c #A45227",
"O  c #AB5727",
"+  c #AF5A25",
"@  c #A5562D",
"#  c #AB5C2E",
"$  c #B65822",
"%  c #AB5F31",
"&  c #A55C3A",
"*  c #B4632D",
"=  c #AD6133",
"-  c #AF683F",
";  c #AD643C",
":  c #B56533",
">  c #B66836",
",  c #BC6C36",
"<  c #B16639",
"1  c #B56A3C",
"2  c #BA6D3A",
"3  c #BD723E",
"4  c #C36C2D",
"5  c #C97636",
"6  c #C2743B",
"7  c #CA7C3C",
"8  c #B36B42",
"9  c #BA6F42",
"0  c #B77247",
"q  c #BB7344",
"w  c #BA7845",
"e  c #BB754A",
"r  c #BD794D",
"t  c #B87650",
"y  c #C47B43",
"u  c #CA7E43",
"i  c #C0794B",
"p  c #C27D51",
"a  c #CE803E",
"s  c #BF8057",
"d  c #BF815B",
"f  c #BF8663",
"g  c #CD8245",
"h  c #CB834C",
"j  c #C8884F",
"k  c #D08545",
"l  c #D18649",
"z  c #D28B4D",
"x  c #D9924F",
"c  c #C48254",
"v  c #CB8552",
"b  c #C48B56",
"n  c #CC8C55",
"m  c #C3835A",
"M  c #CA875A",
"N  c #C68D5A",
"B  c #CB8B5D",
"V  c #D08654",
"C  c #D38D52",
"Z  c #D28D5A",
"A  c #C6905B",
"S  c #CC925B",
"D  c #D59255",
"F  c #DB9554",
"G  c #DE9857",
"H  c #D6945C",
"J  c #D9965C",
"K  c #D69A5E",
"L  c #DB9A5D",
"P  c #E29C57",
"I  c #E19D5C",
"U  c #E4A155",
"Y  c #E4A35B",
"T  c #E8A75C",
"R  c #C68B62",
"E  c #CC8C62",
"W  c #CC9265",
"Q  c #CE9B67",
"!  c #C9936A",
"~  c #D49665",
"^  c #D49B65",
"/  c #DA9C63",
"(  c #D0976C",
")  c #D59B6C",
"_  c #DB9E6B",
"`  c #CF9C73",
"'  c #D49E71",
"]  c #D99E70",
"[  c #D59F79",
"{  c #E19E63",
"}  c #D7A064",
"|  c #DCA165",
" . c #D7A16D",
".. c #DDA36C",
"X. c #DEA96D",
"o. c #D5A273",
"O. c #DBA472",
"+. c #D7A874",
"@. c #DDAA74",
"#. c #D5A67A",
"$. c #DBA679",
"%. c #DDAB7C",
"&. c #DDB07E",
"*. c #E3A364",
"=. c #E6A964",
"-. c #EAAD64",
";. c #E1A56B",
":. c #E4AA6D",
">. c #E8AC6E",
",. c #E1A672",
"<. c #E3AC74",
"1. c #E9AF74",
"2. c #E3AE7C",
"3. c #E8AF7D",
"4. c #E4B076",
"5. c #EAB175",
"6. c #E4B27C",
"7. c #EAB47B",
"8. c #EBB87E",
"9. c #DEAD82",
"0. c #DEB283",
"q. c #E1AF82",
"w. c #E4B484",
"e. c #E9B683",
"r. c #E6B885",
"t. c #EBBA85",
"y. c #E3B58B",
"u. c #E8B788",
"i. c #E6B98C",
"p. c #EABC8B",
"a. c #E5BB94",
"s. c #EABE93",
"d. c #E5BD99",
"f. c #E8BF9A",
"g. c #ECC08D",
"h. c #F0C08B",
"j. c #E5C095",
"k. c #ECC193",
"l. c #E7C19C",
"z. c #EAC39C",
"x. c #EDC89C",
"c. c #F0C495",
"v. c #F0C99E",
"b. c #E7C1A1",
"n. c #EBC5A2",
"m. c #EDCAA5",
"M. c #E8C6AA",
"N. c #EDCCAB",
"B. c #F1CCA3",
"V. c #F0CCA8",
"C. c #EDD0AE",
"Z. c #F2D0A7",
"A. c #F3D1A9",
"S. c #EED1B3",
"D. c #EFD3B8",
"F. c #F0D3B7",
"G. c #F1D4B9",
"H. c #F3DBBE",
"J. c None",
/* pixels */
"J.J.J.J.J.J.J.J.J.J.J.J.J.J.J.J.J.J.J.J.J.J.J.J./ / J.J.J.J.J.J.J.J.J.J.J.J.J.J.J.J.J.J.J.J.J.J.J.J.",
"J.J.J.J.J.J.J.J.J.J.J.J.J.J.J.J.J.J.J.J.J.J.J.6.z K ,.J.J.J.J.J.J.J.J.J.J.J.J.J.J.J.J.J.J.J.J.J.J.J.",
"J.J.J.J.J.J.J.J.J.J.J.J.J.J.J.J.J.J.J.J.J.J.J.z K | C J.J.J.J.J.J.J.J.J.J.J.J.J.J.J.J.J.J.J.J.J.J.J.",
"J.J.J.J.J.J.J.J.J.J.J.J.J.J.J.J.J.J.J.J.J.J.| D J.J.J ..J.J.J.J.J.J.J.J.J.J.J.J.J.J.J.J.J.J.J.J.J.J.",
"J.J.J.J.J.J.J.J.J.J.J.J.J.J.J.J.J.J.J.J.J.2./ J.J.J.J.D J.J.J.J.J.J.J.J.J.J.J.J.J.J.J.J.J.J.J.J.J.J.",
"J.J.J.J.J.J.J.J.J.J.J.J.J.J.J.J.J.J.J.J.J.C / J.J.J.J./ / J.J.J.J.J.J.J.J.J.J.J.J.J.J.J.J.J.J.J.J.J.",
"J.J.J.J.J.J.J.J.J.J.J.J.J.J.J.J.J.J.J.J.| @.J.J.J.J.J.J.D H J.J.J.J.J.J.J.J.J.J.J.J.J.J.J.J.J.J.J.J.",
"J.J.J.J.J.J.J.J.J.J.J.J.J.J.J.J.J.J.J./ H w.J.J.J.J.J.J.D K J.J.J.J.J.J.J.J.J.J.J.J.J.J.J.J.J.J.J.J.",
"J.J.J.J.J.J.J.J.J.J.J.J.J.J.J.J.J.J.J.k H J.J.J.J.J.J.J.J.z | J.J.J.J.J.J.J.J.J.J.J.J.J.J.J.J.J.J.J.",
"J.J.J.J.J.J.J.J.J.J.J.J.J.J.J.J.J.J.D C J.J.J.J.J.J.J.J.J.H J J.J.J.J.J.J.J.J.J.J.J.J.J.J.J.J.J.J.J.",
"J.J.J.J.J.J.J.J.J.J.J.J.J.J.J.J.J.J.z J.J.J.J.J.J.J.J.J.J.J.u g J.J.J.J.J.J.J.J.J.J.J.J.J.J.J.J.J.J.",
"J.J.J.J.J.J.J.J.J.J.J.J.J.J.J.J.J.D D J.J.J.J.J.J.J.J.J.J.J.h l J.J.J.J.J.J.J.J.J.J.J.J.J.J.J.J.J.J.",
"J.J.J.J.J.J.J.J.J.J.J.J.J.J.J.J.O.V J.J.J.J.J.J.J.J.J.J.J.J.%.C J.J.J.J.J.J.J.J.J.J.J.J.J.J.J.J.J.J.",
"J.J.J.J.J.J.J.J.J.J.J.J.J.J.J.J.z l J.J.J.J.J.J.J.J.J.J.J.J.J.g D J.J.J.J.J.J.J.J.J.J.J.J.J.J.J.J.J.",
"J.J.J.J.J.J.J.J.J.J.J.J.J.J.J.J.k J.J.J.J.J.J.J.J.J.J.J.J.J.J.7 k J.J.J.J.J.J.J.J.J.J.J.J.J.J.J.J.J.",
"J.J.J.J.J.J.J.J.J.J.J.J.J.J.J.a z J.J.J.J.J.J.J.J.J.J.J.J.J.J.J.7 7 J.J.J.J.J.J.J.J.J.J.J.J.J.J.J.J.",
"J.J.J.J.J.J.J.J.J.J.J.J.J.J.J.5 O.J.J.J.J.J.J.J.J.J.J.J.J.J.J.J.~ 7 / J.J.J.J.J.J.J.J.J.J.J.J.J.J.J.",
"J.J.J.J.J.J.J.J.J.J.J.J.J.6.J z p.z.s.s.z.l.z.m.B.m.B.B.v.v.x.k.p.| ;.p.p.u.u.J.J.J.J.J.J.J.J.J.J.J.",
"J.J.J.J.J.J.J.J.J.J.O./ H j w  .w.w.u.w.u.6.,.@.| ;.*.....4.<.:.;./ ) ) 6.2.2.,._ <.J.J.J.J.J.J.J.J.",
"J.J.J.J.J.J.J.J.2.,.,.@.K @   W i.u.a.s.a.w.6.6.w.2.2.2.w.i.w.2.e.B o < $.y.q.2.<.,.q.u.J.J.J.J.J.J.",
"J.J.J.J.J.J.J D D J / ;.z * * ~ u.u.i.p.p.i.z.z.m.m.x.x.z.z.i.w.0.Q + + O.u.e.<.3.e.p.8.:.1.J.J.J.J.",
"J.J.J.J.1.=.5.6.:.;.<.*.4 $ z *.:.1.:.:.:...| K / ,.;.| :.<.@./ / H 2 . 7 C J ;.;.,.2.2.<.;.1.J.J.J.",
"J.J.J.;.1.8.p.u.e.7.5.I 4 4 F | :.1.:.:.4.<...| | K K K | <.6.6.4.6.^ 4 5 J O.;.;...,.<.] ~ ~ <.J.J.",
"J.J.*.=.5.5.t.3.1.3.1.1.J k { 7.8.7.4.<.4.4.4.:.:.X...X.<.@.@.@.u.u...4 4 K p.p.<.@.i.z.x.c.s.s.q.J.",
"J.m.i.q.<.;.,.;.*.:.<.1.<.*.L | 1.4.6.u.r.@.X.X.@.@.X.@.%.X.} @.w.w.2.g H w.s.z.s.f.B.V.B.B.B.B.u.J.",
"J.F.C.9.] ] ~ S A S Q ^ o.O.o.o.o.o.O.#.$.%.+.+. .} ^  .O. .^  ...O.@.2.6.y.u.f.v.V.V.n.z.c.h.c.e.J.",
"J.d.b.9.o.' W A A A N b b A Q o.%.q.w.y.0.$.#.$.$.$.%.$.O.) O.O.) _ $.w.y.a.a.a.w.w.w.y.f.s.e.3.O.J.",
"J.e p p c ( o.o.#.#.9.#. .o.#.%.9.a.a.l.l.a.i.y.j.j.a.l.a.d.a.a.w.w.q.w.2.%.w.2.,.] ~ _ ~ H D V ~ J.",
"J.E a.a.a.b.z.z.z.l.l.d.a.i.i.y.9.+. .X.0.y.i.0.0.0.i.i.q.2.O...@.,.<.<.2.w.e.e.q.3.2.<.1.1.:.1.t.u.",
"J.y.n.f.l.n.m.M.n.a.0.0.9.0.%.@.O.$.%.9.0.p.a.y.y.i.y.w.w.9.@.@.......<.6.e.e.e.<.<.;.:.1.5.5.e.p.3.",
"b.n.N.x.z.z.s.p.g.4.:.X.@.4.&.&.@.6.j.z.z.z.z.z.z.p.u.u.w.i.u.i.w.w.u.u.e.e.e.e.1.:.:.:.5.8.t.p.p.<.",
"D.G.N.z.i.7.>.=.Y Y U P Y Y =.-.>.>.5.4.;.| *.*.*./ I :.5.:.;.*.*.;.<.<.7.5.5.1.3.1.1.3.5.5.8.t.t.Z ",
"b.n.n.N.z.8.5.T T T Y U U Y =.=.-.=.=.Y F x F P G P F Y *.I I *.*.;.1.:.:.*.:.1.1.1.8.8.8.7.5.t.p.] ",
"M.F.A.M.l.g.i.g.8.r.0.g.g.r.g.6.4.4.:.7.8.t.8.h.8.8.8.7.5.5.1.2.8.e.e.7.:.1.1.8.t.t.8.7.1.>.=.I { v ",
"M.D.N.M.C.C.C.H.H.S.N.x.N.N.m.x.l.p.u.p.g.g.8.6.&.8.g.g.p.k.c.B.v.B.B.B.c.t.t.p.c.c.s.c.p.t.5.1.;.i ",
"( a.S.B.m.A.Z.B.x.g.g.g.6.r.r.0.2.....;.@.X.6.4.X.| :.6.t.g.k.p.p.k.v.c.p.e.1.,.1.1.u.e.t.e.1.Z e t ",
"J.#.b.A.g.7.:...@.4.4.u.g.g.6.4.;./ / _ :.,.6.2.6.<.e.s.s.p.x.z.n.B.c.s.p.3.e.e.u.u.u.p.s.e.{ i 8 J.",
"J.J.p @.g.t.e.e.g.p.6.4.&.X.X.} / K / / / / O.2.6.2.2.y.u.u.a.n.B.z.z.z.p.u.e.6.e.e.p.p.e.3.,.q.B J.",
"J.J.J.e p.p.u.u.p.s.p.6.<.;.| K J D J / _ _ _ ;.O.| O.<.<.<.2.u.s.i.u.p.p.p.p.p.p.w.@.4.1.<.3.e.) J.",
"J.J.J.& 8 e i m W ' 9.9.%.) / <.<.,.{ _ ;.,.O.,... .O.<.q.2.q.w.2.0.w.y.a.a.k.z.x.g.u.e.6.3.e.q.) J.",
"J.J.J.p Z V ~ q.a.f.b.n.z.a.y.i.a.y.q.,.q.a.f.b.b.0.y.y.y.0.y.0.+.+.0.j.n.n.l.m.z.y.&.4.@.4.4.&.J.J.",
"J.J.J.9 Z Z J ] a.M.m.N.f.i.y.f.a.a.f.f.z.n.m.M.n.d.d.d.b.d.b.f.a.a.j.l.a.0.0.0.&.+.K K K } K 3 J.J.",
"J.J.J.e M <.2.q.y.a.n.b.a.a.f.n.z.a.a.a.a.d.y.9.9.y.d.b.b.a.0.y.0.a.a.a.0.0.%.$.@.$. ./ } | n ; J.J.",
"J.J.J.J.M p ) 2.2.2.<.,...2.2.q.9.9.q.i.y.y.$.$.$.$.9.%.9.#.%.9.y.0.a.l.l.n.n.d.a.l.j.i.4.^ m J.J.J.",
"J.J.J.J.J.v h g z G G G { { / ;.@.2.i.f.z.z.z.a.y.a.0.0.w.0.i.0.#.+.o.+.9.9.y.w.9.w.w.) r 8 f J.J.J.",
"J.J.J.J.J.J.J.J.6 6 6 7 x P P F G G L *.<.:.X.<.<.<.4.w.w.i.a.y.0.a.u.y.i.q.O.' ) B r 1 - J.J.J.J.J.",
"J.J.J.J.J.J.J.J.J.J.@ o * y h C F D D J K / | *.;.=.:.;.:.1.4.<.X.....) B e q 9 1 0 d J.J.J.J.J.J.J.",
"J.J.J.J.J.J.J.J.J.J.J.J.r e < 1 3 > # # % = 2 q y y q 2 : : > 3 3 3 > > > y n v J.J.J.J.J.J.J.J.J.J.",
"J.J.J.J.J.J.J.J.J.J.J.J.J.J.J.J.J.E J.J.! ` ! R e e m t e t r m b ^ ^ J.J.J.J.J.J.J.J.J.J.J.J.J.J.J."
};
