/* XPM */
static char *_632318985604[] = {
/* columns rows colors chars-per-pixel */
"50 50 141 2 ",
"   c #032D01",
".  c #082B03",
"X  c #142D03",
"o  c #192A04",
"O  c #043400",
"+  c #0C3600",
"@  c #043B00",
"#  c #0A3C00",
"$  c #113700",
"%  c #133A00",
"&  c #1B3E01",
"*  c #233E01",
"=  c #313F07",
"-  c #044300",
";  c #0B4400",
":  c #054C00",
">  c #0C4C00",
",  c #134400",
"<  c #1A4400",
"1  c #134C00",
"2  c #1C4D00",
"3  c #17410D",
"4  c #065400",
"5  c #0B5300",
"6  c #055C00",
"7  c #0B5E00",
"8  c #145400",
"9  c #1C5400",
"0  c #145C00",
"q  c #1C5B00",
"w  c #224402",
"e  c #2C4200",
"r  c #244D00",
"t  c #2B4C00",
"y  c #224A08",
"u  c #2E4809",
"i  c #304406",
"p  c #324C00",
"a  c #3B4F00",
"s  c #304C0E",
"d  c #235400",
"f  c #2B5300",
"g  c #245C00",
"h  c #2C5C00",
"j  c #345400",
"k  c #3B5500",
"l  c #325C00",
"z  c #3A5D01",
"x  c #3B5808",
"c  c #0D6501",
"v  c #0C6B00",
"b  c #146400",
"n  c #1B6300",
"m  c #146B00",
"M  c #1B6B00",
"N  c #067700",
"B  c #0D7500",
"V  c #167201",
"C  c #1D7300",
"Z  c #177C00",
"A  c #246400",
"S  c #2B6500",
"D  c #246C00",
"F  c #2B6B00",
"G  c #346400",
"H  c #3B6400",
"J  c #346B00",
"K  c #3B6C00",
"L  c #247400",
"P  c #2C7400",
"I  c #247B00",
"U  c #2C7A00",
"Y  c #337301",
"T  c #3B7400",
"R  c #347C00",
"E  c #3C7B01",
"W  c #435700",
"Q  c #435B00",
"!  c #495B00",
"~  c #426400",
"^  c #4B6500",
"/  c #426B00",
"(  c #4A6A00",
")  c #526C00",
"_  c #586E00",
"`  c #437500",
"'  c #4B7300",
"]  c #447B00",
"[  c #4B7C00",
"{  c #537200",
"}  c #5B7400",
"|  c #547B00",
" . c #5A7B00",
".. c #657D00",
"X. c #138201",
"o. c #1C8201",
"O. c #258301",
"+. c #2C8400",
"@. c #248A01",
"#. c #2C8C00",
"$. c #348501",
"%. c #3B8100",
"&. c #358C00",
"*. c #3C8B00",
"=. c #349200",
"-. c #3B9300",
";. c #458200",
":. c #4C8200",
">. c #458E00",
",. c #4B8A00",
"<. c #548400",
"1. c #5B8500",
"2. c #548C00",
"3. c #5A8C00",
"4. c #459200",
"5. c #4A9100",
"6. c #499A00",
"7. c #519300",
"8. c #5A9600",
"9. c #519C00",
"0. c #5A9B00",
"q. c #638500",
"w. c #698200",
"e. c #638C00",
"r. c #6A8B00",
"t. c #639200",
"y. c #6C9400",
"u. c #649A00",
"i. c #6E9E00",
"p. c #739300",
"a. c #759C00",
"s. c #7A9B00",
"d. c #65A100",
"f. c #6BA201",
"g. c #7CA500",
"h. c #7DA900",
"j. c #73A201",
"k. c #8CAA00",
"l. c #85B000",
"z. c #95B500",
"x. c None",
/* pixels */
"x.x.x.x.x.x.x.x.x.x.x.x.x.x.x.x.x.x.x.x.x.x.x.x.x.x.x.x.x.x.x.x.x.x.x.x.x.x.x.x.x.x.x.x.x.x.x.x.x.x.",
"x.x.x.x.x.x.x.x.x.x.x.x.x.x.x.x.x.x.x.x.x.x.x.x.x.x.x.x.x.x.x.x.x.x.x.x.x.x.x.x.x.x.x.x.x.x.x.x.x.x.",
"x.x.x.x.x.x.x.x.x.x.x.x.x.x.x.x.x.x.x.x.x.x.x.x.x.x.x.x.x.x.x.x.x.x.x.x.x.x.x.x.x.x.x.x.x.x.x.x.x.x.",
"x.x.x.x.x.x.x.x.x.x.x.x.x.x.x.x.x.x.x.l f x.x.x.# ; x.x.x.x.x.x.x.x.x.x.x.x.x.x.x.x.x.x.x.x.x.x.x.x.",
"x.x.x.x.x.x.x.x.x.x.x.x.x.x.x.x.x.x.z G S h x.x.- @ @ x.x.x.x.x.x.x.x.x.x.x.x.x.x.x.x.x.x.x.x.x.x.x.",
"x.x.x.x.x.x.x.x.x.x.x.x.x.x.x.x.x.p z < , r * # > @   $ H S G x.x.x.; O x.x.x.x.x.x.x.x.x.x.x.x.x.x.",
"x.x.x.x.x.x.x.x.x.x.x.x.x.x.x.x.h G & 1 g d / z H f x.k z 2 g t x.- :   @ x.x.x.x.x.x.x.x.x.x.x.x.x.",
"x.x.x.x.x.x.x.x.x.j G S j x.x.r S , . 9 g 9 K g l f t j & 1 < f z r g x.x.x.x.x.x.x.x.x.x.x.x.x.x.x.",
"x.x.x.x.x.x.x.x.e ~ d d h x.+ G K 2 - 9 g 0 q 5 g K K j O g q A H G H x.x.x.x.x.x.x.x.x.x.x.x.x.x.x.",
"x.x.x.x.x.x.x.t j t ; 2 w j j ] R T 9 ~ S 0 8 q ' %.R K r 1 5 8 5 > l t x.x.x.x.x.x.x.x.x.x.x.x.x.x.",
"x.x.x.x.x.x.f S d X d A 9 / ' G q S G / b 7 9 g ' S q S ~ h c 0 q g A g l x.x.x.x.x.x.x.x.x.x.x.x.x.",
"x.x.x.x.x.x.j G $ O 8 g A T H 9 F q ` ' K J G T h 0 F A | ` ` J / ' H g d p W @ - x.x.x.x.x.x.x.x.x.",
"x.x.x.x.x.x.f ~ < - h / E P g q R M ] E T ` %.q 1 D Y n ;.Y T H 2 G h g d w p - @ # x.x.x.x.x.x.x.x.",
"x.x.x.x.x.x.d G 9 8  . .` J g 7 F Y E v n K ` 9 : b Y E P v A Y G z l J S G k , @ - O x.x.x.x.x.x.x.",
"x.x.x.x.x.x.< 1 8 9 G J [ J 5 F t.e.] R E J [ S 7 [ 3.T Y ;.;.D Y j ~ d 0 g ~ , 4 -   @ x.x.x.x.x.x.",
"x.x.x.x.x.x.9 > > 0 8 d Y P 0 <.s.e.;.:.1.0.4.,.A r.;.C L E 1.Y P g } d 5 8 H l h f x.x.x.x.x.x.x.x.",
"x.x.x.x.x.x.; 4 : 8 g h 8 b n P S g g S 1.,.L $.E D B v 8 V P U L q h q 5 8 K G G j x.x.x.x.x.x.x.x.",
"x.x.x.x.x.x.x.: : d G g n 6 b m q g G [ :.D L D ;.;.E R s x M L U M :.` 5 8 g 5 8 l f x.x.x.x.x.x.x.",
"x.x.x.x.1 g 9 9 9 9 g d 0 c b Y J l ,.*.q M 4.O.0.8.3.3.s 3 7 D P L <.J 7 G G G G g g t x.x.- x.x.x.",
"x.x.x.x.8 A S d g 8 q f 5 6 0 E F H 2.Y 8 V $.+.4.o.O.,./ G J D R D n b A / G ` ' g A w ! e @ x.x.x.",
"x.x.x.x.f K S 0 b 0 L Y D F A M H / 8.;.v I f.j.7.&.4.&.*.;.P D U S 0 J l H f f S g A > * < - x.x.x.",
"x.x.x.x.x.~ S 0 S F U %.F L C D A D >.-.V y.z.h.0.f.h.5.&.R [ ` c b J [ K ( i o 8 n A 8 H Q O x.x.x.",
"x.x.x.x.x.x., 1 g G [ ;.C C R ;.] L D I C 6.>.;.E $.7.*.-.Z Y T v A [ [ J t i o 5 q g q / H - x.x.x.",
"x.x.x.x.x.x.x.: 8 f h ` M U <.D A R I B o.o.D J G s R #.-.+.E t.R | e.<.D g ^ u : 8 S g 1 > - x.x.x.",
"x.x.x.x.x.x.S d @ - > 2 0 b ` A 4 D Z N X.&.R y s 3 c O.=.#.0.j.;.e.y.<.P n h h 4 9 G t # d x.x.x.x.",
"x.x.x.x.x.f A < $ > : 9 9 c n q 8 0 m N L 7.%.H x y A L 4.&.U U Z ] ` E L M :.<.0 2 1 9 f H x.x.x.x.",
"x.x.x.x.x.r 9 A A d f 9 0 M 5 b $.$.U $.U +.:. .E Y >.+.6.;.b U ` z q A U L ] J 7 9 9 ; f / x.x.x.x.",
"x.x.x.x.x.d q S F g n 0 9 q 7 V =.6.$.$.+.O.E R o.O.@.O.P $.Y 3.~ f K D E J 0 b q S ' Q ( ( x.x.x.x.",
"x.x.x.x.x.< d ( S 0 q A H g 6 n 8.9.#.@.-.9.4.X.+.=.#.$.L V T u.T F L M T K d T ^ ( ....| ) x.x.x.x.",
"x.x.x.x.x.9 ; f G 0 A F P D A A ' 0.#.=.u.*.*.8.h.3.U -.d.2.<.i.P M C D 8 n J [ H ) { } ^ W x.x.x.x.",
"x.x.x.x.x.9 5 > 5 > 5 M U R F P D F C O.7.I v 3.j.>.1.p.k.z.l.l.<.Y L U Y n K [ f f H Q x.x.x.x.x.x.",
"x.x.x.x.x.O : : g 9 > G :.U V L U ` V N %.P c M Y +.5.s.s.k.y.p.e./ J ` y.q.e.q.a # ; x.x.x.x.x.x.x.",
"x.x.x., 2 , 5 1 d g t k | Y C %.[ F T ] 1.A D Y Y M T e.g.r.g K :.P | q.p.s.y.{ p ; x.x.x.x.x.x.x.x.",
"x.x.x.8 A A d d 8 d p d h q m Y T 4 S 3.:.K { 1.3.$.e.[ T D b 8 S n Y q.t.q.K H ( , x.x.x.x.x.x.x.x.",
"x.x.x.q K A 8 n n g 8 8 8 0 7 b G 5 8 H E F 1.r.y.r.3.J P C L 9 b q K | | K q G { 1 x.x.x.x.x.x.x.x.",
"x.x.x.p / A b S K K S g K 9 8 q g , h H F q F e.e.{ ] <.[ n P ] T l <.z d A S 1 8 - x.x.x.x.x.x.x.x.",
"x.x.x.x.W d 0 G h ; h { { f l H } ( | H 0 8 M ` T 8 ` e.[ K [ r.s.r.y./ q S H + 2 r x.x.x.x.x.x.x.x.",
"x.x.x.x.x.x.: 9 H ; 1 j G g ) _ .. .| H & . 6 A S : 0 J P Y w.r.p.e.<.g q , d 2 G j x.x.x.x.x.x.x.x.",
"x.x.x.x.x.x.@ - x.x.O x., 1 l _ | ~ l G w * # . < 1 g 9 8 q K r.e.G K n n d > , / j x.x.x.x.x.x.x.x.",
"x.x.x.x.x.x.x.x.x.x.x.x.1 , g K ( f 2 g j a w r S q G g 0 g 9 G ' { ( < h K ~ k ' p x.x.x.x.x.x.x.x.",
"x.x.x.x.x.x.x.x.x.x.x.x.x.8 A S d g 0 9 f d 8 0 q 8 d d d ~ d - l ( G l ^ } w. . .W x.x.x.x.x.x.x.x.",
"x.x.x.x.x.x.x.x.x.x.x.x.x.r / D 0 n A G q 5 q q q 9 1 ; g H t @ # & d g ^ } } ( ^ x.x.x.x.x.x.x.x.x.",
"x.x.x.x.x.x.x.x.x.x.x.x.x.x.Q G 0 S / g h K ' f 9 S K t ~ ( x.x.x.x.; , j { ) x.x.x.x.x.x.x.x.x.x.x.",
"x.x.x.x.x.x.x.x.x.x.x.x.x.x.x., 8 g G : 2 ( ( h Q ( .. . .( x.x.x.x.1 x.x.x.x.x.x.x.x.x.x.x.x.x.x.x.",
"x.x.x.x.x.x.x.x.x.x.x.x.x.x.x.x.- > j , @ < f q / _ { } { W x.x.x.x.x.x.x.x.x.x.x.x.x.x.x.x.x.x.x.x.",
"x.x.x.x.x.x.x.x.x.x.x.x.x.x.x.x.x.x.x.x.x.x.+ ; r ^ } ^ x.x.x.x.x.x.x.x.x.x.x.x.x.x.x.x.x.x.x.x.x.x.",
"x.x.x.x.x.x.x.x.x.x.x.x.x.x.x.x.x.x.x.x.x.x.> , x.x.Q x.x.x.x.x.x.x.x.x.x.x.x.x.x.x.x.x.x.x.x.x.x.x.",
"x.x.x.x.x.x.x.x.x.x.x.x.x.x.x.x.x.x.x.x.x.x.x.x.x.x.x.x.x.x.x.x.x.x.x.x.x.x.x.x.x.x.x.x.x.x.x.x.x.x.",
"x.x.x.x.x.x.x.x.x.x.x.x.x.x.x.x.x.x.x.x.x.x.x.x.x.x.x.x.x.x.x.x.x.x.x.x.x.x.x.x.x.x.x.x.x.x.x.x.x.x.",
"x.x.x.x.x.x.x.x.x.x.x.x.x.x.x.x.x.x.x.x.x.x.x.x.x.x.x.x.x.x.x.x.x.x.x.x.x.x.x.x.x.x.x.x.x.x.x.x.x.x."
};
